<?xml version="1.0" encoding="UTF-8"?>
<svg id="Layer_1" data-name="Layer 1" xmlns="http://www.w3.org/2000/svg" viewBox="0 0 1080 1920">
  <defs>
    <style>
      .cls-1 {
        fill: #fff;
        stroke-width: 0px;
      }
    </style>
  </defs>
  <g>
    <path class="cls-1" d="M557.34,231.8c-.28,1.65-.54,3.31-1.73,4.76-1.53,1.86-2.68,3.94-3.57,6.25-.85,2.21-2.35,4.22-3.78,6.16-2.14,2.88-3.77,6.03-5.42,9.19-.17.33-.03.83-.04,1.25.33,0,.7.07.99-.04,2.02-.75,4.01-1.59,6.04-2.32,1.93-.7,3.87-1.35,5.83-1.93,1.28-.37,3.1.53,3.71,1.69.42.8.06,2.39-.78,3.25-.92.93-1.72,1.82-3.36,1.77-1.4-.04-2.75,1-4.13,1.51-2.38.88-4.91,1.14-7.24,2.08-.68.28-5.83,1.49-6.39,1.47-2.71-.09-4.36-2.36-3.59-4.96.13-.43.44-.82.53-1.25.06-.31-.12-.67-.2-1.01-.26.16-.64.26-.76.5-1.41,2.77-3.85,4.66-6.06,6.67-2.6,2.36-6.04,2.67-9.33,2.15-1.33-.21-2.52-1.63-3.66-2.64-.7-.62-1.1-1.07-1.87-.09-.75.96-1.77,1.71-2.57,2.63-3.18,3.64-7.46,5.99-10.9,9.33-.87.84-2.11,1.38-3.28,1.82-1.44.55-3.11.02-3.88-.94-1.04-1.3-1.6-3.09-.57-4.92.66-1.18,1.07-2.5,1.59-3.76.4-.97-.65-1.98.19-3.01.64-.78,1.37-1.76,1.43-2.69.11-1.76,1.7-2.68,1.95-4.4.22-1.5,1.01-3.14,2.05-4.25,1.66-1.75,2.22-4.04,3.52-5.96,2.23-3.31,4.06-6.9,6.06-10.37.17-.3.4-.58.48-.9.05-.17-.13-.56-.26-.59-.31-.07-.91-.07-.95.06-.93,2.75-4.43,3.73-4.73,6.88-1.29.98-1.95,2.77-4.12,2.56-2.54-.24-3.96-2.13-2.82-4.41.77-1.54,1.81-2.96,2.85-4.34.8-1.06,1.91-1.88,2.64-2.97.67-.99,1.81-1.28,2.53-2.18.83-1.05,1.76-2.13,2.86-2.85,2.2-1.43,4.47-2.82,6.88-3.82.8-.33,2.11.62,3.2.95,1.13.35,1.79.94,1.55,2.26-.07.38.37.82.47,1.25.12.56.36,1.54.15,1.67-1.18.7-.79,2.02-1.34,2.93-.65,1.07-1.2,2.21-1.84,3.29-1.81,3.06-3.76,6.04-5.43,9.17-1.95,3.64-4.3,7.04-6.27,10.66-1.47,2.7-2.83,5.45-4.17,8.22-.16.34.13.9.21,1.36.26-.17.53-.34.78-.52,1.03-.78,2.08-1.53,3.08-2.35,1.03-.84,1.4-2.22,2.79-2.89,1.15-.56,1.95-1.83,2.91-2.78.96-.95,1.96-1.87,2.84-2.89.35-.4.61-1.04.61-1.57,0-3.47,1.39-6.45,2.87-9.51.75-1.54,2.32-1.85,3.02-3.1.69-1.22,1.14-2.59,2.34-3.44.46-.33,1.11-.42,1.49-.81,3.36-3.41,7.11-3.15,11.03-1.21.64.32,1.04.47,1.4-.3,1.22-2.61,3.98-3.53,5.95-5.32,2.77-2.52,6.49-3.3,9.72-4.97,1.12-.58,2.21-.14,3.31.5,1.59.93,3.11,1.8,3.17,4.01ZM532.35,246.48c.23-1.56-1.05-2.15-1.82-3.03-.79-.91-1.53-1.24-2.81-.54-1.35.75-2.48,1.34-2.15,3.15.11.59.11,1.24,0,1.83-.32,1.67-1.38,2.44-3.18,2.1-1.15-.22-1.69.51-1.89,1.18-.21.72-.02,1.69.32,2.39.3.62.32.94,0,1.56-.58,1.09-.86,2.34-1.35,3.48-.82,1.91-.74,3.52.27,4.25.9.65,2.3.32,3.77-.91.28-.23.52-.52.79-.78,2.07-1.97,3.64-4.3,5.32-6.6,1.86-2.56,1.61-5.5,2.75-8.1ZM537.39,252.7c0,.4-.03.53,0,.64.09.33.21.65.32.97.14-.28.23-.6.42-.84.81-1,1.5-1.99,1.73-3.35.14-.83.96-1.55,1.49-2.31.6-.86,1.35-1.64,1.79-2.57,1.45-3.05,3.51-5.69,5.47-8.4.26-.36.38-.82.57-1.23-.54-.14-1.3-.59-1.59-.38-2.09,1.51-4.51,2.67-5.77,5.11-.22.43-.57,1.18-.41,1.36,1.14,1.27-.12,1.78-.76,2.28-.6.46-1.57.42-2.19.86-1.23.87.52,1.35.39,2.11-.04.22-.18.42-.24.64-.44,1.79-.86,3.57-1.23,5.1Z"/>
    <path class="cls-1" d="M539.6,145.3c0,1.35.04,2.7-.01,4.05-.04,1.08-.77,1.79-1.74,1.85-1.2.07-1.97-.68-1.87-1.65.18-1.79-2.09-3.51-.14-5.35.07-.06-.55-.7-.63-1.12-.13-.66-.28-.85-.81-.32-.26.26-.49.56-.79.77-.66.46-1.71.75-1.92,1.35-.17.48.65,1.32,1.03,2,.55.99.37,1.84-.54,2.51-.96.7-1.82.48-2.5-.41-.42-.55-.86-1.12-1.11-1.75-.85-2.16-1.49-2.45-3.72-1.57-.34.14-.7.91-.73,1.6-.04.99-.6,1.62-1.53,1.67-1.29.08-2.67.35-3.63-1.03-.44-.64-.6-.24-.78.33-.17.53-.58,1.07-1.03,1.39-1.17.82-2.69.6-3.96,1.1-1.41.56-2.64.69-4.03-.07-.57-.31-1.4-.19-2.11-.22-2.42-.1-2.59-.2-2.81-2.61-.09-.99-.41-1.43-1.29-.89-1.36.84-2.65.76-4,.08-1.14-.58-2.05-.65-2.28.98-.04.31-.4.56-.56.87-1.01,1.8-1.04,1.9-2.95,1.14-.87-.35-1.43-.23-2.29.06-2.6.9-5.31.54-7.14-1.48-1.45-1.61-3.04-3.51-2.07-6.23,1.17-3.27,1.47-3.96,3.1-5.29.76-.62,1.31-1.51,2.11-2.04,1.51-.99,4.85-.8,6.44.55,1.08.92,1.53.54,2.05-.36,1.65-2.85,5.5-1.89,7.09-.15.6.65.39,3.77-.23,4.44-.83.9-1.74,1.73-2.59,2.62-.19.2-.42.65-.34.75.29.36.73.9,1.07.87.9-.09,1.8-.36,2.63-.73.28-.13.45-.76.47-1.18.08-2.01-.14-4.03.73-5.97.42-.93.76-1.63,1.95-1.69,1.15-.05,2.17.64,3.48.13,1.17-.46,2.66-.13,4.01-.09,1.95.05,2.44.67,2.39,2.69-.02.81-.33,1.03-1.09,1-1.23-.05-2.46-.03-3.68,0-1.99.03-2.73.68-3.36,2.87-.06.22-.14.43-.21.65-.09.26-.18.52-.27.78.33-.01.73.09.99-.06.8-.46,1.62-.94,2.29-1.56.76-.69,1.48-.69,2.27-.19.69.44,1.21,2.24.8,2.95-.13.24-.57.44-.86.42-1.44-.06-2.08,1.01-2.66,1.98-.27.46,2.52,1.37,3.77,1.14.35-.06.69-.11,1.04-.15,1.3-.13,2.87.15,3.81-.49.87-.59,1.03-2.19,1.56-3.32,1.12-2.37,3-4.32,3.79-6.91.22-.72,1.07-1.38,1.8-1.77,1.26-.69,2.72.2,3.26,1.76.18.53.67,1.02.69,1.54.05,1.23.38,1.25,1.09.4.5-.61,1.07-.83,1.89-.82,1.42.01,2.4-.63,3.21-1.96.96-1.57,3.36-1.47,4.07.28.53,1.33.6.44,1.22.32,1.6-.31,2.72-2,4.53-1.53.37.1.75.39.97.7.28.39-.44,1.19.52,1.37.08-.46.11-.93.26-1.37.1-.27.34-.6.6-.7,1.33-.53,3.55,1.8,3.07,3.14-.36,1.01-1.5,1.45-2.92.89-1.19-.47-2.27-.81-3.25.29-.22.25-.52.75-.42.88.22.31.66.65,1,.63.68-.03,1.35-.26,2.01-.44.76-.21,2.66.53,2.84,1.13.32,1.08-.26,2.18-1.46,2.64-.53.2-1.14.21-1.67.41-.92.34-1.97.6-2.63,1.23-.36.34,2.07,1.29,3.32.97,1.12-.28,2.25-.52,3.38-.74.91-.17,2.28.03,2.64-.49.46-.65.46-2.11.02-2.81-1.38-2.21-.38-4.52-.59-6.75-.13-1.36,1.28-2.08,2.9-1.74,1.04.22,1.76,1.39,1.45,2.49-.12.42-.6.76-.68,1.18-.08.43.13.91.21,1.36.17-.34.35-.67.52-1.01,1.69-3.24,4.58-4.05,7.88-2.61,1.71.75,2.16,2.05,2.38,3.49.4,2.7-.37,4.18-2.08,6.5-1.64,2.22-4.16,3.15-6.29,4.51-1.4.9-3.79.96-5.16-1.1-.47-.7-.79-.73-1.6-.1-2.97,2.29-6.56,2.48-10.09,2.12-.75-.08-1.7-1.64-1.93-2.66-.35-1.58.09-3.29-.76-4.86-.16-.3.47-.99.61-1.53.08-.3-.03-.69-.18-.98-.07-.13-.49-.23-.63-.14-.25.16-.56.46-.57.71-.05,1.47-.03,2.95-.03,4.42ZM492.42,141.24c0-.49.02-.98,0-1.47-.05-.93-1.85-2.02-2.77-1.64-2.61,1.06-3.9,3.19-4.57,5.77-.1.4.06.97.3,1.32.68,1.02,3.34,1.87,4.49,1.53,1.25-.37,2.48-2.12,2.55-3.66.03-.61,0-1.23,0-1.84ZM564.85,140.11c-.45-.97.4-2.05-.82-2.14-.76-.06-2.05.06-2.22.47-.7,1.66-2.11,3.19-1.54,5.22.1.35.46.79.77.86.41.09,1.05,0,1.31-.27.54-.58.92-1.31,1.32-2,.46-.77.88-1.56,1.19-2.12ZM527.18,141.14c-.2-.48-.28-.68-.37-.88-.4.34-.8.68-1.2,1.01.19.11.41.35.56.32.36-.08.68-.29,1-.45ZM534.83,140.72c-.05.11-.16.38-.27.64.2.08.43.27.6.23.24-.06.43-.3.64-.46-.2-.08-.4-.17-.97-.4Z"/>
    <path class="cls-1" d="M607.75,204.98c-3.15.73-5.97-1.09-8.68-2.9-2.24-1.5-4.58-6.01-4.82-9.71-.07-1-1.67-1.74-.47-2.85,1.23-1.14-.48-1.8-.45-2.86.1-2.85.07-5.69,1.34-8.31.52-1.07-.41-2.51.96-3.28,1.78-5.77,4.68-8.04,8.54-9.96.31-.15.58-.65.83-.63,3.14.3,6.53-1.03,9.36,1.37,4.18,1.11,6.86,4.29,9.4,7.37,1.6,1.94,3.12,4.33,2.87,7.25-.08.9.14,1.78.46,2.73.4,1.15.08,2.87-.57,3.98-1.35,2.31-1.24,5.1-2.85,7.3-2.63,3.61-4.97,7.42-9.4,9.25-2.64,1.09-2.57,1.26-6.52,1.26ZM608.47,199.18c1.07-.1,2.31.11,3.18-.36,1.43-.78,2.87-1.81,3.84-3.09,2.44-3.18,4.3-6.71,5.54-10.56.31-.98-.72-1.57-.35-2.47.3-.73.47-1.52.76-2.26.57-1.49-1.29-.95-1.51-1.89-.51-2.21-2.28-3.56-3.83-5.02-1.32-1.24-3.05-2.04-4.77-1.6-1.14.29-2.12,1.46-3.01,2.4-.41.43-.27,1.25.63,1.16,1.53-.15,2.6.84,3.89,1.27,1.27.42,1.19,1.11,1.25,2.07.08,1.08-.22,2.45-1.06,2.37-1.08-.1-1.74,1.07-3.13.36-1.27-.65-3.43.23-4.32,1.48-1.09,1.52-2.12,3.3-1.87,5.46.2,1.78,1.29,2.35,3.15,2.02,2.53-.44,4.04-1.85,4.99-4.05.62-1.43,1.97-1.95,3.17-2.63.33-.18,1.19.06,1.45.39,1.13,1.4,1.45,2.72.67,4.71-1.26,3.2-3.44,6.05-7.34,7.45-1.87.67-3.63.77-5.48,0-.22-.09-.73.32-1,.6-.09.1.04.59.21.74,1.42,1.25,3.11,1.57,4.95,1.45ZM601.16,176.98c-.17.17-.41.31-.49.51-.24.61-.45,1.24-.59,1.89-.03.15.22.37.35.55.17-.17.41-.31.49-.51.24-.61.45-1.24.59-1.89.03-.15-.22-.37-.35-.55Z"/>
    <path class="cls-1" d="M474.95,198.34c.6-.17,1.58-.51,2.59-.71,3.33-.65,6.63-1.61,10.07-1.46.94.04,1.31-.58,1.76-1.09.45-.5.8-1.13,1.05-1.76,1.46-3.64,4.02-6.65,5.78-10.13,1.29-2.55,2.93-4.93,4.38-7.4.29-.48.54-1.02.65-1.57.3-1.62,1.37-2.71,2.49-3.76,1.36-1.27,3.56-1.25,4.75.15.66.78,1.47,1.72,1.55,2.64.15,2.01,1.11,3.84.9,5.96-.16,1.58.39,3.23.66,4.84.28,1.63-.64,3.4.56,4.92-.63,4.15,2.06,7.82,1.71,11.98-.13,1.61-.7,2.31-2.1,2.82-.47.17-.6.16-1.08.02-1.82-.52-2.68-1.96-3.26-3.43-.59-1.48-.73-3.15-.98-4.75-.11-.72.12-1.5-.05-2.2-.27-1.09-.75-2.12-1.13-3.17-1.48.28-3.16-.67-4.47.8-.44.49-1.13.82-1.76,1.04-.94.31-1.38.92-1.81,1.78-.79,1.58-1.59,3.23-3.3,4.1.38,2.16-1.64,2.79-2.61,4.07-.68.9-1.49,1.01-2.53.45-.58-.32-1.5-.64-1.99-.4-1.83.89-3.73.59-5.62.71-.53.03-1.05.41-1.57.64-.63.27-1.23.67-1.88.78-1.85.32-3.72.66-5.59.72-1.97.06-3.53-.71-4.32-2.78-.58-1.51-.66-1.54-.47-4,.14-1.83,0-3.68.05-5.52.01-.56.06-1.3.4-1.65,1.63-1.65,1.22-3.43.58-5.28-.11-.32-.36-.82-.23-.97,1.36-1.62.43-3.51.7-5.25.26-1.62.34-3.28.78-4.84.61-2.2,3.18-2.79,4.87-1.24,1.27,1.16,2.69,2.27.99,4.14.7,1.52-1.47,2.91-.1,4.63.39.49-.21,2.03-.69,2.9-.44.79-1.81,1.25-1.91,1.98-.09.62,1.34,1.13,1.27,2.36-.13,2.08-.01,4.17-.06,6.26,0,.43-.28.86-.43,1.29-.44,1.26-.31,1.44,1.42,1.37ZM505.09,182.94c-.26-.42-.38-.6-.5-.79-.33.41-.66.82-.99,1.22.2.08.46.28.6.21.33-.16.61-.43.89-.65Z"/>
    <path class="cls-1" d="M557.29,168.07c-.17,1.13-.09,3.15-.82,4.81-1.05,2.37-.82,4.95-1.89,7.32-.97,2.16-.86,4.8-1.79,6.99-1.04,2.44-1.22,5.08-2.4,7.48-.94,1.92-1.66,4.09-1.84,6.2-.2,2.35-1.73,3.98-2.48,6.01-.42,1.13-1.9,1.94-3.22,1.73-1.75-.28-3.52-1.08-3.94-3.02-.96-4.51-3.29-8.72-2.97-13.5.05-.79-1.04-1.47-.15-2.34.09-.09-.36-.78-.61-1.16-1.02-1.48-.79-3.33-1.45-4.93-.13-.31.05-.74-.03-1.09-.3-1.34-.65-2.67-.99-4.01-.4,1.24-1.11,2.46-1.15,3.71-.09,2.65-1.94,4.63-2.34,7.17-.41,2.57-2.5,4.73-2.15,7.57-1.18,1.18-2.33,2.41-3.58,3.52-.24.21-1.1.11-1.34-.16-.87-.95-1.63-2-2.35-3.07-.14-.21-.04-.69.1-.97,2.62-5.21,4.25-10.78,5.95-16.32.84-2.72,1.72-5.43,2.91-8,1.19-2.56,4.33-3.33,6.22-1.39,1.33,1.36,2.62,2.94,3.14,4.87,1.09,4.11,2.47,8.13,3.05,12.39.3,2.25,1.15,4.46,1.42,6.76.05.46-.5,1.31.48,1.31.32,0,.9-.63.93-1.02.4-4.16,2.97-7.78,2.99-12.03,1.27-2.23,1.16-4.86,2.12-7.22.9-2.21,1.01-4.73,1.58-7.08.43-1.8.97-3.52,2.48-4.89,1.01-.91,2.08-.91,3.02-.63.91.27,1.37,1.28,1.14,2.42-.12.59-.02,1.22-.02,2.58Z"/>
    <path class="cls-1" d="M637.56,184.82c.02,3.85,1.17,6.31,4.21,7.72,2.62,1.22,6.25.84,8.23-1.03,1.12-1.06,2.41-2.04,2.85-3.6.35-1.25,1.27-1.98,2.11-2.81,2.08-2.06,2.98-4.48,3.47-7.44.64-3.87.72-7.85,1.99-11.65.5-1.49.04-3.23.77-4.84.8-1.78,2.91-2.61,4.52-1.47,1.21.86,2.06,2.2,1.34,3.41-.91,1.54-.06,3.26-.75,4.47-.89,1.56-.33,3.06-.66,4.53-.42,1.91-.57,3.88-1.2,5.75-.6,1.76-.4,3.66-.84,5.52-.51,2.11-.63,4.33-1.48,6.4-.26.63-.11,1.43-.13,2.15-.04,1.17-.09,2.26-.62,3.43-.33.74-.99,1.83-.23,3.08.39.64.32,1.96-.34,3.08-.54.92-.22,2.34-.29,3.54-.1,1.75-1.87,2.98-3.27,2.05-.9-.59-2.09-1.3-1.92-2.86.1-.93.23-2.38-.28-2.74-1.01-.73,1.12-1.56-.27-1.92.19-.86.44-1.71.57-2.58.12-.86-.47-1.07-1.12-.82-.63.24-1.21.64-1.78,1.02q-2.7,1.8-7.07,1.9c-3.35.07-5.29-.3-7.26-1.52-3.48-2.14-5.79-5.84-6.36-9.41-.59-3.69.51-9.57,2.6-12.68,1.36-2.02,3.71-4.44,5.7-5.65.46-.28,1.17-.12,1.71-.3,5.22-1.74,6.21-1.81,10.52-.69,1.26.33,3.01,2.37,3.08,3.58.12,2.04-.65,3.34-2.21,4.2-.64.36-1.09.46-1.53-.11-1.8-2.32-3.89-3.5-6.76-1.78-4.03-.12-5.03,3.21-6.39,5.89-.71,1.4-.7,3.17-.9,4.16Z"/>
    <path class="cls-1" d="M566.54,247.72c.61,0,1.24.08,1.84-.02,1.03-.16,2.33.61,3.06-.55.6-.94,1.05-2.04,1.3-3.13.38-1.71.13-3.67.89-5.15.69-1.36-.88-2.45.05-3.42,1.05-1.09.58-2.33.52-3.46-.13-2.42.34-4.74.81-7.06.31-1.53,1.32-2.7,2.86-2.94,1.38-.22,2.91-.38,3.92,1.18.64.99.99,3.08.08,3.96-1.44,1.39-.99,3.28-1.65,4.87-.47,1.13.35,2.65-.81,3.72,1.19,2.01-.44,4-.04,6.03.17.88.36,1.95-.65,2.68-.11.08.02.75.23.93.19.16.81.17.94,0,1.26-1.55,2.1.21,3.03.48.44.13.65,1.38.77,2.16.05.33-.41.73-.58,1.12-.56,1.26-1.37,1.99-2.83,2.37-1.6.42-3.46.92-3.17,3.48.1.84-.89,1.79-1.38,2.7,1.38.78-.11,1.55-.08,2.34.03.98-.45,1.99-.81,2.95-.14.36-.62.45-.2,1.08.59.9.64,1.97-.1,2.98-.25.34-.24.89-.28,1.35-.11,1.19.14,2.54-.35,3.53-.55,1.11-.49,2.18-.32,3.15.21,1.12-1.03,2.06-.2,3.14-.9,1.55-.93,3.47-2.31,4.86-.84.84-1.69.83-2.64.78-1.27-.06-1.45-1.53-1.45-2.03.02-2.52-.63-5.09.29-7.57.12-.32.3-.64.33-.97.26-2.84.5-5.69.75-8.54.02-.24-.1-.58.02-.72,1.71-2,1.03-4.7,2.01-6.91.23-.52.13-1.17.19-1.76.08-.84-.36-1.02-1.1-.97-.9.06-1.65-.4-2.74-.12-1.84.47-3.9.16-5.86.12-2.13-.04-3.26-1.71-4.7-2.91-1.11-.92-1.08-2.02-1.1-3.25-.06-2.74.79-5.24,1.75-7.76.69-1.8,1.22-3.66,1.87-5.48.45-1.25,1.21-2.23,1.73-3.35.76-1.63,2.26-1.67,3.5-2.24.39-.18,1.13.17,1.6.46.51.31.93.81,1.31,1.29.28.35,1.18.52.32,1.33-.73.69,1.13,2.44-.66,2.69-1.63.23-1.87,1.46-2.22,2.42-.99,2.67-1.78,5.42-2.5,8.17-.44,1.69-.06,1.99,1.85,2.01.98,0,1.97,0,2.95,0Z"/>
    <path class="cls-1" d="M439.63,183.76c-.55,2-1.19,3.97-1.61,5.99-.52,2.48-1.17,4.94-1.77,7.39-.74,3.01-.47,5.95-.57,8.92-.04,1.03-.03,2.21-1.06,2.45-1.19.28-2.59.68-3.72-.51-1.09-1.14-1.93-2.35-1.89-4.01.03-1.1.03-2.21-.01-3.31-.01-.26-.27-.52-.42-.78-.1.2-.15.47-.3.6-1.3,1.06-2.64,2.08-3.94,3.12-1.27,1.01-3.01-.14-3.89,1.37-1.27-.49-2.52-1.02-3.81-1.46-1.21-.42-2.02-1.16-2.37-2.4-.22-.76-.6-1.5-.71-2.27-.22-1.62.34-3.31-.7-4.88-.31-.46-.15-1.54.2-2.04.52-.73.66-1.15,0-1.84-.27-.28-.36-.95-.23-1.34.83-2.44,1.48-4.89,1.45-7.49,1.51-1.46,1.07-3.7,2.16-5.37,1-1.52,1.55-3.36,2.67-4.75,2.26-2.8,5.3-4.37,8.83-5.3,1.78-.47,3.48-.53,5.24-.65,1.74-.13,3.24.16,4.57,1.46.93.9,1.31,3.04.28,3.89-1.2.99-2.76,1.9-4.18,1.19-1.21-.61-2.11-.66-3.31-.34-.95.25-1.84.29-2.64,1.11-.67.68-1.88.79-2.7,1.37-1.89,1.34-2.69,3.46-3.53,5.51-.61,1.47-.5,3.25-1.92,4.37-.08.06.13.5.21.75.07.22.22.43.22.64.03,1.42-.95,2.59-.8,4.12.13,1.35.15,2.74-.36,4.22-.4,1.16.39,2.82.88,4.18.34.93,1.13.89,1.99.12,2.47-2.24,4.11-5.07,5.73-7.92,1.64-2.88,3.39-5.71,5.09-8.56.85-1.42,1.92-2.38,3.79-2.11,1.54.22,2.78,1.41,2.84,3.04.02.49,0,.98,0,1.47.1.03.2.05.3.08Z"/>
    <path class="cls-1" d="M582.74,198.35c-1.8.34-2.64-.86-3.32-2.17-1-1.92-1.92-3.88-2.24-6.07-.08-.55-.53-1.05-.57-1.59-.1-1.46-1.1-1.37-2.01-1.16-.87.2-1.67.68-2.52,1-1.74.66-3.46,1.35-5.42,1.2-.58-.04-1.6.45-1.74.9-.35,1.15-.54,2.28-1.61,3.05-.12.09.2.79.32,1.21.83,3,.28,4.32-2.55,5.1-.65.18-1.29.45-1.9.73-1.71.78-1.82.77-2.61-.68-.44-.8-.9-1.59-1.23-2.43-.14-.35-.14-1.03.08-1.21.92-.75.9-1.85,1.33-2.78,1.67-3.61,3.54-7.13,5.42-10.63.68-1.28,1.41-2.63,2.45-3.58,1.14-1.04,1.16-2.58,2.21-3.66,1-1.03,1.5-2.54,2.28-3.81,1.27-2.08,3-3.84,5.42-4.16,1.46-.19,3.18.34,4.28,1.73.59.74,1.98,4.37,2.1,5.39.21,1.74.44,3.48.77,5.21.05.29.69.74.94.67,2.32-.64,3.84,1.76,6.03,1.57.04,0,.35.94.18,1.18-.93,1.27-2.24,2-3.74,2.47-2.17.68-2.14.91-1.65,2.94.45,1.9,1.62,3.48,1.98,5.46.47,2.61-.23,4.11-2.65,4.11ZM571.94,182.14c.37,0,.75-.06,1.1.01,1.43.3,2.39-.49,3.03-1.53.61-.99-.79-1.14-1.09-1.8-.23-.52-.68-1.02-.7-1.54-.06-1.43-.59-1.04-1.11-.32-1,1.41-1.89,2.9-2.89,4.31-.32.45-.66.76.19.85.49.05.98,0,1.47,0Z"/>
    <path class="cls-1" d="M462.42,185.58c-.3.97-1.12,2.28-.77,2.83.62.96.57,1.84.5,2.75-.1,1.35.37,2.52.74,3.76.36,1.22-.14,2.47.6,3.82.73,1.33.1,3.15.78,4.82.54,1.34-2.07,3.65-3.58,3.65-1.37,0-2.93-1.26-2.9-2.57.06-2.4-.28-4.62-1.44-6.79-.41-.76-.05-1.93-.07-2.91-.03-1.73-.44-2.12-2.16-1.71-1.54.37-3.05.92-4.54,1.48-.31.12-.45.66-.67,1-.71,1.06-1.43,2.06-1.51,3.44-.07,1.07-1.77,1.79-.79,3.18-.97,1.31-1.69,2.91-3.63,3.07-.26.02-.56,0-.77-.12-.5-.3-.94-.69-1.43-1.01-1.67-1.08-1.67-1.07-.98-3.05.53-1.5.8-3.16,1.63-4.47.91-1.43,1.08-3,1.63-4.5.55-1.48,1.39-2.87,2.18-4.25.64-1.1,1.19-2.41,2.16-3.1,1.13-.81.61-1.97,1.18-2.89,1.98-3.19,3.64-6.59,5.55-9.83,1.04-1.76,4.93-1.56,5.79.29.67,1.43,1.51,3.05,1.41,4.52-.2,2.94,1.04,5.66,1.07,8.61ZM455.55,185.24c0-.6.03-1.2-.02-1.79-.02-.2-.22-.38-.34-.57-.13.18-.28.35-.37.55-.38.8-.77,1.59-1.1,2.41-.08.2-.07.62.05.7.45.29.96.49,1.45.72.11-.31.26-.62.32-.94.06-.35.01-.71.01-1.07Z"/>
    <path class="cls-1" d="M596.36,243.66c.03-.88-.24-1.86.88-2.38.27-.13.59-.57.57-.83-.33-3.47,2.08-6.03,3.07-9.04.77-2.34,2.34-4.42,3.6-6.59.68-1.17,3.33-2.34,4.81-2.14,1.6.21,2.29,1.65,3.24,2.67.24.26-.04,1.14-.28,1.65-.19.42-.6.86-1.02,1.03-3.44,1.43-3.91,4.84-5.35,7.66-.79,1.54-1.46,3.09-1.86,4.75-.38,1.56-1.27,2.99-1.11,4.72.05.56-.57,1.23-.99,1.76-.85,1.09-1.85,1.97-3.4,1.53-1.49-.42-1.55-1.91-2.13-2.98-.26-.47-.04-1.2-.04-1.81Z"/>
    <path class="cls-1" d="M576.46,144.19c0-.98-.02-1.96,0-2.94.03-.86-.1-1.54-.74-2.29-1.25-1.47-1.11-2.9.41-3.96,2.15-1.48,4.35-2.65,7.27-1.6,1.39.5,1.65,1.44,2.3,2.34.71.99.46,1.78-.36,2.52.81.35,1.63.68,2.43,1.05.2.09.47.36.46.53-.14,2.09.76,4.47-1.58,5.96-2.14,1.37-3.89,3.29-6.37,4.19-1.86.68-3.68-.2-3.81-2.12-.08-1.22-.02-2.45-.02-3.68ZM584.45,141.61c-1.51-.22-2.69.49-3.81,1.35-.96.74-.74,2.13-.39,2.63.6.86.95-.45,1.43-.76,1.06-.7,2.06-1.5,3.05-2.3.2-.16.26-.5.38-.76-.22-.06-.44-.11-.66-.17ZM580.53,139.43c.89-1.26,1.35-1.93,1.82-2.6-.18-.12-.42-.39-.54-.35-.51.19-1,.44-1.47.72-.26.15-.69.46-.65.59.12.44.41.84.84,1.64Z"/>
    <path class="cls-1" d="M589.63,239.02c.31-1.74.43-3.27.87-4.71.77-2.51,1.54-5.02,2.26-7.54.17-.61.6-1.18.69-1.92.21-1.84,1.36-2.91,2.94-2.91,1.58,0,2.66,1.31,2.96,3.3.16,1.07-.64,1.78-.72,2.65-.32,3.25-1.57,6.24-2.52,9.29-.39,1.24-.87,2.27.04,3.26,1.06,1.16-.83,1.47-.5,2.34-.86.05-1.14,1.79-2.5.7-.64-.51-2.29-.13-2.56-.64-.63-1.19-.69-2.67-.94-3.82Z"/>
    <path class="cls-1" d="M590.51,147.9c.45-1.48.86-3.53,1.72-5.37.55-1.18.52-1.85-.3-2.82-1.81-2.15-3.51-4.41-5.2-6.65-.31-.41-.66-1.11-.51-1.47.19-.45.84-.82,1.36-1,1.59-.55,2.75.47,3.29,1.61.66,1.37,1.71,2.27,2.68,3.28,1.11,1.16,1.3,1.12,2.05-.5.57-1.23,1.23-2.49,1.41-3.8.13-.98.58-1.56,1.21-2.08.41-.34,1.25-.8,1.45-.64.5.4.91,1.07,1.08,1.71.45,1.7-.38,3.27-1.04,4.69-1.87,4.01-3.84,7.95-4.91,12.3-.5,2.05-1.52,2.51-3.24,2.59-1.15.05-1.18-.54-1.07-1.85Z"/>
    <path class="cls-1" d="M477.17,239.61c-2.1.73-2.79-1.86-4.51-2.43-1.5-3.17-4.29-5.68-4.88-9.32-.21-1.27-.29-2.57-.42-3.85-.01-.11.02-.3.08-.32,1.07-.36,2.14-.77,3.24-1.01.83-.18,1.71-.15,2.24.75.35.59.97,1.17.99,1.77.1,3.5,2.35,5.89,4.14,8.56.62.93.99,1.99,1.18,3.18.31,2.02.05,2.69-2.04,2.67Z"/>
    <path class="cls-1" d="M459.24,228.03c-.03-1.4,1.08-2.9,2.34-3.15,1.47-.29,3.09.61,3.53,2.3.88,3.37,2.23,6.45,4.41,9.21.58.74.65,1.95.74,2.96.05.57.52,1.45-.63,1.76-.88.24-1.68,1.19-2.62.67-1.11-.62-2.03-1.58-3.11-2.27-.75-.48,1.45-1.11-.15-1.38-.93-.16-1.39-.71-1.58-1.66-.14-.64-.61-1.21-.87-1.84-.3-.73-.48-1.52-.8-2.24-.28-.62-.68-1.19-1.02-1.78-.05-.09-.12-.17-.19-.26,1.48-.8-.74-1.55-.04-2.34Z"/>
  </g>
  <g>
    <path class="cls-1" d="M557.21,1723.55c-1.03,1.15-2.05,2.31-3.08,3.46-.64.7-1.19,1.48-1.99,2.04-.32.23-.6.62-.45,1.23.26,1.02-.5,1.65-1.23,2.17-1.59,1.14-3.17,2.32-4.84,3.34-.72.44-1.65.55-2.48.81.67-.37,1.34-.73,2-1.1-.54,0-1.03.15-1.54.22-.54.08-1.1.09-1.53.53.34.26.84-.13,1.07.35-1.22.52-2.47.16-3.71.15-.35,0-.7-.08-1.04-.06-.43.03-.65-.14-.67-.55-.51-.07-1.03-.29-1.42-.14-.32.12-.6.41-1.12.42.15-.17.25-.28.41-.47-.58.1-1.14.99-1.63.02-.44.55-.56.52-.97-.22-.47.24-.94.68-1.59.19.17-.09.31-.16.58-.29-.4-.06-.66-.1-.97-.15-.5,1.76-1.9,2.92-2.86,4.44.36.07.64.12.99.19-.42.97-1.22,1.21-2.02,1.33-.64.1-1.09-.63-.81-1.27.19-.43.47-.83.72-1.23.15-.24.31-.46.51-.74-.45-.24-.99-.3-.94-1.06-1.64.99-3.12,1.89-4.61,2.78-.44.26-.87.53-1.34.73-1.08.47-2,.2-2.79-.81.14-.35.28-.73.43-1.1-.34-.16-.66-.28-.95-.46-.83-.49-.85-.57-.45-1.58-.36-.11-.72-.22-1.09-.34-.49.76.26,1.67-.41,2.44-.15-.24-.26-.41-.38-.6-.31.12-.64.26-1.04.41-.16-.29-.31-.56-.51-.92-.07.28-.12.49-.17.71-.13-.08-.27-.15-.39-.22-.07.03-.14.05-.17.09-.67.93-1.33,1.86-2.01,2.78-.17.23-.41.48-.73.28-.41-.25-1.01-.25-1.07-.94-.08-.86.39-1.52.75-2.21.63-1.21,1.31-2.4,1.95-3.6.05-.09,0-.24,0-.52-.66.74-1.22,1.38-1.78,2.01-1.69,1.9-3.39,3.79-5.06,5.7-.62.71-1.3.96-2.27.45-.36-1.03.77-1.56,1.07-2.57-.3.2-.5.31-.68.46-.34.28-.7.55-1,.86-.28.28-.56.29-.86.12-.47-.28-.82-.11-1.19.22-1.81,1.61-3.68,3.14-5.42,4.83-.81.79-1.78,1.33-2.59,2.09-.63.6-1.32.18-1.96.12-.41-.65-.09-1.21.26-1.62,1.5-1.72,2.8-3.6,4.42-5.23,1.05-1.06,1.87-2.34,2.78-3.53.25-.32.47-.66.78-1.1-.76.24-1.11.77-1.54,1.19-.96.96-1.92,1.92-2.87,2.88-.65.65-1.25,1.35-1.93,1.97-1.24,1.13-2.51,2.25-3.81,3.32-.29.24-.76.4-1.13.37-.92-.08-1.33-.92-.87-1.76.41-.75.93-1.45,1.42-2.16.18-.26.39-.5.5-.87-.85.51-1.72,1-2.55,1.53-1.82,1.16-3.61,2.38-5.46,3.48-.84.5-1.81.79-2.73,1.14-.59.22-1.14.07-1.61-.32-.15-.12-.28-.39-.26-.56.02-.15.28-.32.46-.36,1.45-.3,2.65-1.1,3.91-1.79.13-.07.28-.22.29-.35.14-1.26.96-2.12,1.73-3.01.08-.09.14-.21.2-.31,0-.02-.02-.05-.06-.14-.43.31-.88.59-1.27.93-1.46,1.22-2.88,2.47-4.35,3.67-.54.44-1.17.76-1.72,1.11-.56-.22-1.03-.41-1.54-.61-.19-1.71,1.39-2.47,2.04-3.86-.85.29-1.31.93-1.91,1.35-.29.2-.57.42-.79.69-.47.58-1.03.82-1.84.54-.48-.91.54-1.22.86-1.81-.11-.2-.31-.4-.3-.59,0-.23.19-.46.23-.56-.13-.81-.35-1.49-.33-2.17.02-.51.5-.87.99-1.08.91-.38,1.83-.76,2.73-1.16.84-.36,1.67-.73,2.5-1.1,1.61-.71,3.23-1.39,4.82-2.13,1.3-.6,2.55-1.29,3.84-1.91,1.38-.66,2.81-1.19,4.34-1.44.17-.03.32-.2.6-.37-.88-.28-1.6-.51-2.31-.74-.18-.06-.4-.09-.53-.21-.67-.58-1.49-.68-2.32-.76-.28-.03-.67.07-.74-.4,0-.04-.11-.11-.12-.09-.66.45-.84-.27-1.22-.5-.31-.19-.64-.36-.95-.54.02-.07.04-.13.05-.2.71.13,1.43.26,2.24.41-.19-.27-.33-.46-.48-.67.12-.26.23-.52.36-.8.26-.04.53-.08.81-.13.05-.27-.59-.48-.05-.79.77.5,1.59.97,2.32,1.54,1.03.8,2.15.94,3.41.83,1.84-.16,3.64-.5,5.6-1.01-1.11-.24-2.06-.49-3.01-.65-1.23-.2-2.28-.8-3.28-1.46-1.59-1.06-3.09-2.25-4.66-3.35-.85-.6-1.73-1.18-2.65-1.67-.69-.37-1.12-.9-1.46-1.59,1.51-.25,2.65.49,3.79,1.22.72.46,1.44.91,2.39.96-.18-.78-.77-1.13-1.33-1.41-2.34-1.17-3.38-3.23-3.9-5.63-.14-.64-.11-1.32-.16-1.98,0-.12.02-.28-.05-.36-.71-.83-.66-1.88-.84-2.86-.05-.28-.12-.58-.28-.8-.48-.65-.43-1.29-.07-2.01.59.2,1.18.67,1.74-.12.32.64.85,1.06.55,1.73-.06.13-.26.19-.43.31.02.74.62,1.19,1.14,1.67,1.61,1.5,3.24,2.97,4.88,4.47.11-.05.25-.11.3-.13.51.59.92,1.26,1.5,1.68.54.39,1,1.19,1.95.81.03.12.06.24.1.35.29.78.61.95,1.38.62.7-.3,1.38-.66,2.05-1.02.47-.25.75-.65.87-1.39-.63.34-1.13.61-1.63.9-.49.28-.97.59-1.39.85-.68-.51-1.28-.96-1.89-1.42.54-.34,1.11-.8,1.75-1.09.99-.43,1.66-1.2,2.36-1.96.3-.32.6-.64,1.03-1.11-.78.26-1.4.45-1.99.68-1.4.54-2.86.74-4.35.87-1.58.14-2.77-.47-3.8-1.62-1.3-1.45-2-3.09-1.81-5.04.09-.9.19-1.83.85-2.57.23-.26.42-.56.84-.26.06.04.26-.1.5-.21-.21-.13-.32-.2-.47-.29.17-.12.33-.24.61-.43-.26-.07-.38-.11-.52-.15.25-.32.39-.65,0-1.01-.06.12-.11.23-.16.35-.04-.02-.12-.03-.12-.05-.17-1.18-.86-1.96-1.88-2.49-.29-.15-.4-.31-.32-.68.08-.38.02-.79.02-1.2.23-.04.51-.03.67-.16.1-.08.03-.38.04-.59,0-.99.93-2.25,1.88-2.55.36-.11.74-.17,1.19-.27.04.83.7.89,1.21,1.17.5-.7.98-1.37,1.47-2.06-.25-.31-.51-.64-.78-.96.1.05.2.1.37.19-.12-.53-.38-.68-.8-.57-.03-.01-.07-.01-.09-.03-.45-.43-.7-.96-.92-1.57.24-.11.4-.21.57-.27.15-.05.3-.07.55-.12-.79-.49-.88-1.27-1.04-1.99-.12-.52-.09-1.07-.18-1.6-.07-.38.02-.68.27-.95.06-.06.13-.13.16-.21.6-1.65.86-1.92,2.35-2.5.06-.02.11-.06.21-.1v-1.35c-.54.21-.99.43-1.47.56-.81.23-1.12.07-1.55-.68-.37-.65-.65-1.32-.57-2.08h.83c.24.32.53.68.8,1.05.29.4.68.38,1,.13.67-.5,1.43-.89,1.76-1.79.23-.63.72-1.17,1.13-1.72.09-.12.32-.14.55-.24-.03-.16-.16-.38-.09-.49.41-.66.06-1.17-.18-1.77-.82-2.09-1.23-4.28-1.44-6.51-.14-1.49-.12-2.98.03-4.49.09-.89-.17-1.82-.28-2.73-.01-.09-.06-.21-.13-.25-1.16-.73-1.16-2.02-1.47-3.14-.26-.95-.48-1.93-.54-2.9-.04-.65-.36-1.29-.27-1.87.15-.95-.2-1.82-.3-2.7-.13-1.16-.06-2.32-.21-3.48-.05-.37-.59-.87.07-1.22-.77-.27.16-.9-.27-1.24.46-.71-.23-1.65.44-2.32-.27-.52.39-.88.21-1.43-.09-.29.25-.68.32-.97.08-.35.11-.54.43-.75.13-.08.06-.5.05-.77,0-.26-.08-.5.31-.57.1-.02.19-.27.22-.43.18-.84.3-1.68.5-2.51.98-4.09,1.54-4.87,3.71-8.1.99-1.47,1.95-2.97,3.35-4.09,1.51-1.22,3.05-2.4,4.89-3.11.23-.09.44-.22.59-.5-.93.38-1.86.76-2.79,1.13-.32.13-.64.25-.96.39-.28.12-.58.23-.82.41-.39.29-.7.24-.97-.15-.77.47-1.53.93-2.28,1.4-.15.1-.3.26-.35.43-.11.33-.24.38-.61.37-.28-.01-.68.32-.86.61-.78,1.22-1.82,2.24-2.47,3.56-.88,1.82-1.66,3.65-2.28,5.57-.62,1.96-.95,3.97-1.29,5.98-.03.16-.1.32-.34.44.06-.45.12-.9.17-1.35.4-3.37,1.3-6.62,2.52-9.78.84-2.18,2.03-4.18,3.59-5.93,1.17-1.32,2.56-2.36,4.08-3.23.21-.12.45-.26.58-.45,1.31-1.84,3.17-2.9,5.23-3.7.44-.17.9-.32,1.34-.49.44-.16.79-.43,1.17-.72,1.15-.88,2.41-1.64,3.81-2.1.08-.03.18,0,.31.02.39-1.2,1.46-1.37,2.5-1.51.66-.09,1.33-.02,2.05-.02-.02-.14-.08-.35-.07-.54.08-.85.75-1.28,1.83-1.17.31.03.63.13.92.25,2.44,1.08,4.64,2.51,6.51,4.43.53.54,1.1,1.04,1.63,1.55q.66-1.85-.3-3.73c-.22-.44-.77-.87-1.29-1.02-.49.7.1,1.37.15,2.09-.66-.38-1.04-1.19-.86-1.95.16-.72.62-1.28,1.32-1.52.27-.09.71.03.95.21.47.37.86.84,1.26,1.29.25.28.46.61.76,1,1.28-1.48,2.76-2.63,4.36-3.67,1.61-1.05,3.31-1.9,5.11-2.71.13.22.25.43.44.76.95,0,2.02.12,3.04-.04.72-.12,1.46-.3,2.18-.5,1.12-.31,2.26-.17,3.38-.08.82.06,1.63.27,2.46.35,1.18.11,2.18.69,3.19,1.21,2.77,1.42,5.22,3.32,7.64,5.25.69.55,1.26,1.28,1.99,1.75.84.54,1.79.9,2.71,1.29,1.05.44,2.11.83,2.98,1.6.09.08.2.18.31.21,1.67.42,2.82,1.69,4.2,2.57.05.03.07.1.11.16-.1.21-.2.43-.32.67-.07-.01-.17,0-.24-.05-1.03-.67-2.05-1.37-3.1-2.01-.65-.39-1.35-.69-2.21-1.12.18.51.27.75.61,1.03.66.56,1.14,1.33,1.71,2.01.28.34.57.68.9.97.82.7,1.69,1.35,2.51,2.05,1.42,1.2,2.45,2.74,3.56,4.2.11.14.14.35.21.52.1.26.12.59.3.75.58.54.75,1.26,1.05,1.95.57,1.31.86,2.69,1.25,4.05.55,1.9.72,3.86.81,5.84.05,1.14.17,2.28-.02,3.41-.05.3-.2.59-.29.89-.12.36-.26.72-.35,1.08-.23.94-.28,1.85-.18,2.84.35,3.68,0,7.31-1.39,10.79-.43,1.09-.94,2.15-1.4,3.22-.11.26-.2.53-.24.81-.14.97-.22,1.95-.4,2.91-.12.66.02,1.15.62,1.52.33-.16.66-.34,1.01-.49.32-.13.21.65.65.32,0,.16,0,.31,0,.46.05.04.1.12.14.12.64-.09.96.31,1.13.81.32.97.63,1.94.84,2.94.25,1.21.46,2.44.55,3.67.11,1.55.14,3.12.08,4.68-.02.52-.39,1.03-.62,1.6.48,1.1.98,2.26,1.48,3.43.08.17.18.36.18.54,0,.74.53,1.1,1.01,1.52.91.8,1.88,1.49,2.94,2.07.68.37.67.39.89,1.09-.19.35-.46.66-.51,1.01-.17,1.09-.92,1.58-1.85,1.76-.77.15-1.57.11-2.36.15-.33.02-.66.03-1.15.05,2.39,1.67,4.49,2.23,6.56,1.78.02-.41.03-.86.05-1.31,0-.11-.02-.27.05-.33.51-.48.28-1.14.37-1.7.11-.65-.04-1.33.02-2,.11-1.36-.45-2.56-.81-3.8-.2-.7-.83-1.09-1.4-1.52-.32-.24-.86-.32-.87-.98.43.07.89-.16,1.13.41.02.04.19.02.29.03.12.01.24.01.36.03.32.05-.05.56.4.57.23,0,.51.16.67.34.21.23.34.54.47.83.11.26.17.55.27.82.09.27.21.54.28.81.45,1.83.29,3.67.13,5.51-.04.47-.15.94-.23,1.44.37.51.87.97.74,1.72-.01.08.09.17.11.26.18.69.42,1.38.52,2.08.1.7.13,1.43.06,2.14-.1,1.04-.34,2.06-.46,3.1-.1.86-.57,1.52-.99,2.21-.45.74-.53.89-.74,2.2,1.62-1.37,2.85-2.85,3.79-4.62.11.08.26.22.29.2.42-.28.83-.59,1.25-.87.14-.09.36-.22.46-.17.12.06.23.31.2.45-.12.78-.19,1.58-.44,2.31-.29.86-.75,1.67-1.16,2.54,1.67.88,2.27,2.39,2.04,4.31-.1-.41-.2-.83-.3-1.28-.08,1.05-.13,2.08-.25,3.09-.1.85-.33,1.68-.42,2.52-.27,2.5-2,3.89-3.89,5.16-.25.17-.56.24-.81.34.73.75,1.49,1.49,2.2,2.27.64.7.7,1.3.2,2.08-.79,1.23-1.89,1.96-3.4,1.91-.76-.03-1.52-.1-2.27-.21-.44-.06-.84-.23-1.04-.73-.07-.18-.38-.27-.58-.4-.13.2-.23.35-.37.56-.87-.39-1.72-.77-2.57-1.15,1.88,2.13,4.44,3.08,6.91,4.18.09-.18.15-.37.28-.5.13-.14.33-.22.61-.39.2.11.53.23.79.45.34.29.7.3,1.06.18.6-.21,1.21-.43,1.76-.74.34-.19.66-.5.87-.83.26-.42-.09-.69-.41-.93-.32-.24-.63-.48-1.01-.76.5-.42.91-.55,1.46-.29,1.52.73,1.7.67,1.15,2.54-.36,1.22-1.37,1.88-2.53,2.29-.3.11-.64.11-.92.25-.19.1-.43.35-.43.53.01.82-.44,1.13-1.43,1.2.6.35,1,.61,1.42.83.59.31,1.18.61,1.78.9.41.19.59.67,1.16.7.43.02.84.42,1.26.65.45.25.9.48,1.33.75,1.32.82,2.68,1.58,3.92,2.51.6.45,1.41.73,1.7,1.54.01.03.04.07.06.07.83-.04,1.21.73,1.85,1.03.33.16.56.35.48.81-.05.27.14.57.23.9-.06.08-.16.21-.25.33.23.42.83.72.35,1.37-1.2-.59-2.39-1.25-3.64-1.75-.62-.25-1.23-.46-1.81-.81-.28-.17-.6-.26-.85-.52-.17-.17-.48-.21-.73-.3-.15-.06-.31-.09-.44-.18-1.33-.99-2.9-1.52-4.36-2.26-1.19-.61-2.4-1.19-3.58-1.83-.49-.27-.92-.66-1.39-.98-.23-.16-.5-.42-.72-.39-.56.08-.78-.26-1.07-.61-.33-.39-.7-.75-1.31-.57-.34-.41-.54-1-1.23-.91-.4-.67-1.2-.74-1.75-1.17-.33-.26-.65-.61-1.16-.41-.07.03-.21-.02-.26-.08-.46-.58-1.28-.52-1.78-1.06-.24-.25-.68-.3-1-.49-.62-.37-1.21-.79-1.83-1.16-.7-.42-1.42-.81-2.13-1.21-.06-.03-.13-.04-.17-.09-.85-.88-2.11-1.24-2.82-2.28-.07-.1-.18-.18-.29-.24-1.15-.63-2.11-1.52-3.19-2.34-.45,1.67-.45,3.29-.32,4.93.03.42.53.62.37,1.09-.08.23,0,.42-.24.67-.34.36-.16.95.26,1.34-.58.27-.58.89-.06,1.68-.51.44-1.02.88-1.64,1.41-.09.31.16,1.04-.77,1.01-.22-.89-.53-1.79-.62-2.71-.07-.67-.19-1.4.16-2.05-.43-.3.11-.6,0-.92-.11-.31-.13-.65-.14-.98-.03-.68-.03-1.35-.03-2.03,0-.49.08-.97,0-1.49-.07-.4.03-.89.04-1.34.02-1.05.13-2.1.01-3.16-.02-.14.04-.29.05-.44.02-.33.04-.65.06-1.07-.4.17-.24.79-.75.56-.05-.02-.19.04-.23.1-1.02,1.64-2.62,2.82-3.56,4.54-.44.79-1.15,1.43-1.74,2.14-.21.25-.41.5-.77.92.02-.62.31-.88.49-1.17.16-.27.43-.5.18-.85q.44.03.54-.56c-.23.25-.38.41-.53.57ZM507.83,1657.62c.25-.22.51-.44.76-.66-.07-.06-.15-.11-.22-.17-.17.28-.35.57-.52.85-.39-.1-.45.16-.42.5.14-.17.27-.35.41-.52ZM578.39,1725.2c.15.14.29.29.44.43.04-.07.09-.15.13-.22-.2-.07-.4-.13-.6-.2.12-.55-.41-.58-.66-.83-.51-.62-.86-.7-1.77-.33.45.14.84.27,1.24.38.15.04.31,0,.47,0-.01.51.36.65.76.76ZM511.38,1651.78c.13-.32-.02-.51-.35-.61l.36.6c.21.31.42.61.63.92-.08.42.17.62.47.8.22-.12.4-.23.72-.41.05.47.11.83.12,1.19,0,.07-.21.15-.33.22.29.36.31.95.96.93-.3.71-.3.7-1,1.23-.11.09-.11.33-.18.57.8-.08,1.46-.1,1.84-.8.08-.15.28-.29.44-.32.41-.07.59-.29.65-.7.04-.35.31-.34.58-.28-.25.7-.61,1.33-1.22,1.76-.45.32-.7.7-.66,1.25.21.29.42.56.64.87.08-.14.15-.25.23-.39.31.25.28.49.13.84-.23.53-.02.89.53,1.08.18.06.37.1.55.15,2.88.81,5.76,1.63,8.65,2.44.4.11.85.19.67.81-.02.07.1.21.19.28.81.7.61,1.24.1,2.01-.14.22-.3.42-.45.63l.13.15c.51-.19,1.06-.32,1.52-.59.44-.26.55-.01.74.24-.19.26-.36.5-.68.93.52,0,.82,0,1.12,0,.28,0,.56.04,1.03.07-1.55.97-2.33,1.73-2.49,2.47.77-.49,1.45-.92,2.08-1.32.24.15.43.27.6.38-.31.48-.54.84-.84,1.3.5-.04.88-.06,1.41-.1-.49.86-.89,1.56-1.33,2.33.42.07.74.12,1.12.18-.14,1.02-1.12,1.58-1.21,2.7.57-.39,1.02-.69,1.46-1,.75.96-.1,1.66-.29,2.45q.86-.16,1.08.07c-.37.92-.71,1.78-1.08,2.69q1.12-.21,1.53.48c-.29.35-.68.67-.87,1.08-.24.53.2.9.59,1.16-.33.61-.62,1.15-.95,1.76.62-.17,1.18-.32,1.81-.48.07.83-.56,1.17-.77,1.68.26.04.54.05.78.14.78.3.87.62.36,1.28-.76.98-1.54,1.95-2.31,2.93-.13.17-.23.36-.36.57.51.16.76-.13,1.04-.4.7-.67.92-.66,1.75.08-.24.38-.46.8-.73,1.17-.54.74-1.06,1.52-1.7,2.16-.68.68-.46,1.64-.93,2.38.83-.66,1.59-1.37,2.33-2.09.51-.5,1.07-.62,1.73-.26.15,1.49-1.45,2-1.83,3.21.32.04.59.06.86.11.91.19,1.02.35.76,1.2-.19.62-.41,1.23-.61,1.83.48.15.93.31,1.39.42.2.05.46.08.62,0,1.12-.64,2.47-.92,3.24-2.1.1-.16.44-.34.54-.28.6.32.93-.17,1.33-.42.38.18.73.5,1.06.49.88-.05,1.58.32,2.31.86.31-.55.67-.98.82-1.48.4-1.35.67-2.72-.22-4.02-.63-.92-1.22-1.86-1.82-2.8-.16-.25-.28-.53-.44-.84.95-.12,1.76-.22,2.33.68-.2-.05-.35-.08-.65-.15.17.47.37.82.69.96.22.1.55-.03.95-.07.16.18.39.4.57.66.09.13.16.46.12.48-.27.15-.13.26-.03.44.46.86.92,1.72,1.05,2.71.09.75.04,1.53.52,2.2.07.1.06.34,0,.46-.43.84-.81,1.72-1.34,2.49-.79,1.16-1.32,1.26-2.33.83-.6.05-1,.18-1.35.1-.51-.11-1.01-.33-1.47-.58-.74-.41-1.46-.64-2.2-.04-.95.76-2.03,1.25-3.2,1.56-.41.11-.83.19-1.24.29.24.85.13,1-.59,1.07-.5.05-.94-.07-1.36-.34-.94-.6-1.88-1.2-2.83-1.78-.48-.29-.97-.55-1.56-.65-1.63-.29-3.11.78-2.92,2.79.57-.37,1.1-.74,1.32-1.43.11-.33.37-.53.75-.41.3.09.4.49.24.91-.11.28-.25.54-.37.81.06.03.12.07.18.1.21-.3.4-.62.64-.9.16-.17.39-.36.6-.37.57-.03.75.45.44,1.12-.4.85-.81,1.69-1.21,2.53-.06.23-.11.46-.2.83.51-.31.38-.57.19-.83.33.07.54-.05.66-.37.17-.44.35-.88.56-1.3.13-.27.3-.51.46-.77.5.28.3.62.26.91-.04.31-.16.6-.24.9l.16.11c.43-.24.85-.48,1.32-.74.12.24.28.45.31.69.04.25-.05.52-.09.82.2,0,.3-.05.38-.01.15.07.28.17.42.25-.11.13-.23.38-.33.38-.47-.03-.62.31-.73.62-.13.36-.42.43-.69.57,0,0,.03-.03.03-.03-.23.1-.48.18-.68.32-1.29.91-2.57,1.85-3.86,2.77-.6.42-1.22.81-1.83,1.21-.28.19-.51.4-.33.74,2.43-1.42,4.8-2.94,7.52-3.63.18.22.38.62.52.6.79-.11,1.24.56,1.88.7.49.11,1.12.58,1.57-.17.07-.11.29-.12.43-.19,1.06-.53,2.13-1.07,3.23-1.62.68.82,1.3-.45,2.01-.02.28.43.55.65,1.11.87.44.18.88.37,1.33.53.48.17.97.3,1.45.47.45.16.88.37,1.33.51,1,.31.94.38,1.19.58.33.26.78.37,1.17.56.08.04.12.13.18.2-.12.26-.23.5-.34.75.39.08.71.16,1.16.26-.28.62-.49,1.14-.75,1.63-.43.84-1.39,1.28-1.68,2.24,0,.03-.1.06-.13.05-.45-.19-.53.2-.71.44-.42.56-.82,1.13-1.25,1.69-.08.1-.24.14-.36.2-.13.05-.36.08-.37.14-.06.47-.43.57-.73.83-1.31,1.13-2.1,1.71-3.45,2.1-.7.2-1.39.45-2.11.53-1.13.14-2.29.3-3.41.19-1.12-.11-2.22-.46-3.22-1.06-.86-.51-1.11-.41-1.84.42-.13,0-.37-.04-.37-.03-.09.38-.14.77-.21,1.15.06.01.12.02.19.03.13-.39.25-.79.38-1.18.17.09.34.26.5.25.53-.04.63.31.67.65.41.16.75.3,1.08.43-.24,2.32-.48,4.56-.71,6.81.07.01.13.02.2.03.35-1.35.21-2.83.95-4.2.27.17.61.26.7.46.14.33.17.74.14,1.11-.05.54-.19,1.08-.3,1.61.07.02.13.03.2.05.17-.46.33-.93.53-1.39.21-.49.56-.66,1.07-.39.03.32.06.62.12,1.14.34-.51.55-.82.78-1.17.22.02.46.04.68.06.16,1.79.32,3.53.49,5.38.4-.53-.03-1.35.76-1.53-.14-.12-.22-.19-.35-.29.84-.07.9-.06.89.67,0,.58.14,1.01.7,1.17.3.09.65,0,1.07,0-.18-.68-.34-1.23-.45-1.79-.03-.15.05-.42.15-.46.13-.06.36.01.5.11.11.07.15.26.23.4.34.6.69,1.21,1.06,1.86.48,0,.97.05,1.43-.01.75-.1,1.55-.15,2.23-.45.68-.29,1.24-.87,1.86-1.3,1.08-.76,2.19-1.48,3.24-2.27.88-.66,1.89-1.12,2.64-2,1.95-2.26,3.4-4.87,5.17-7.25.81-1.1,1.63-2.2,2.49-3.26.83-1.02,1.78-1.95,2.26-3.21.14-.38.35-.73.55-1.08,1.08-1.97,2.16-3.93,2.97-6.03.19-.49.43-.97.53-1.48.37-1.89.71-3.8,1.04-5.7.25-1.43.49-2.87.71-4.31.29-1.91.57-3.83.83-5.75.18-1.38.28-2.76.46-4.14.23-1.73.48-3.47.77-5.19.2-1.22.52-2.43.71-3.66.24-1.53.39-3.08.59-4.62.02-.14.11-.28.27-.62.05.53.08.81.11,1.1.48-.38-.05-1.2.78-1.52.23.53.45,1.06.7,1.63.25-.43.47-.8.74-1.26.37.08.76.16,1.23.25-.04,1.22-.79,2.19-.9,3.37.39.12.74.23,1.07.34.25.54.23,1.08-.04,1.51-.47.74-.42,1.42-.02,2.15.74.26.81.35.76,1.06-.02.22-.06.44-.08.67-.03.38,0,.74.29,1.1.26-.43.51-.8.71-1.18.28-.53.55-1.06.78-1.61.28-.66.68-1.32.76-2.01.13-1.16.14-2.36.05-3.52-.12-1.52-.41-3.03-.56-4.54-.11-1.09-1.3-1.78-2.25-1.21-.88.52-1.69,1.15-2.7,1.42-.48.13-1,.18-1.38.84-.29-3.21-.65-6.2-.51-9.28-.49-.06-.84-.36-.87-.89-.04-.6-.12-1.22,0-1.8.15-.79-.12-1.41-.45-2.04-.24.05-.42.09-.65.14-.03-.52-.02-1-.08-1.47-.05-.41-.17-.8-.26-1.22-.45.31-.45,1-1.16,1.06-.04-.59-.33-1.04-.73-1.44-.15-.15-.25-.37-.33-.58-.31-.87-.61-1.74-.92-2.61-.08-.22-.19-.43-.36-.81-.13.58-.22.98-.32,1.42-.54-.05-1.05-.1-1.59-.15-.06-.69-.12-1.32-.16-1.95-.06-1.08-.14-2.16-.15-3.24-.01-1.45-.41-2.82-.67-4.23-.04-.24-.26-.53-.48-.63-.35-.16-.46-.39-.52-.73-.06-.33-.17-.66-.26-1.02-.35.07-.8.28-.89-.21-.13-.7-.65-1.25-.66-1.99-.01-.73-.3-.91-1.06-.82-.11.01-.24-.02-.35-.05-.62-.16-1.05.12-1.06.77-.02.87,0,1.73.18,2.59.07.34.1.7.07,1.04-.05.6-.15,1.2-.23,1.8-.53.21-1.15-.03-1.7.3-.28.16-.69-.16-.74-.53-.11-.88-.25-1.76-.03-2.66.3-1.27-.59-2.03-1.87-1.68-.4.11-.79.14-.76.72,0,.16-.27.34-.56.67.07-.84.13-1.49.18-2.14-.3.18-.55.39-.55.59,0,1.11-.29,2.17-.44,3.26-.26,1.87-.63,3.72-1.54,5.39-.34.63-.85,1.18-1.32,1.73-.17.2-.49.32-.69-.05.15-.12.3-.24.61-.48h-2.04c.49-.7.9-1.21,1.21-1.77.29-.52.76-.98.68-1.66.58-.4.65-1.11.93-1.67.29-.59.39-1.27.52-1.93.13-.64.19-1.29.31-2.12-.59.51-1.04.9-1.52,1.32-.16-.23-.26-.37-.35-.5-.34-.02-.68.31-.97-.07q.21-.81-.32-1.09c.09-.31.19-.62.31-1.01-.48.11-.5.43-.53.69-.19,1.54-.81,2.93-1.42,4.33-.72,1.64-1.83,2.96-3.24,4.03-.34.25-.77.4-1.17.54-.83.27-1.61,0-2.4-.24-.73-.22-.89-.37-.88-1.33.21.19.37.34.55.5.21-.67.67-.85,1.35-.73-.08-.29-.13-.48-.2-.73.25.1.44.17.61.24.14-.11.25-.18.34-.27,1.38-1.36,2.49-2.93,3.22-4.7.51-1.25.76-2.61.35-4.03-1.83-.08-3.62-.15-5.42-.24-.82-.04-1.7-.31-2.45-.09-.96.28-1.91-.14-2.85.23-.57.22-1.24.17-2,.26.37.78.69,1.45.93,1.96-.39.49-.69.86-1.06,1.32-.18-.09-.47-.24-.77-.39-.11.15-.21.28-.3.4l.03-.03c-.34.16-.54-.02-.69-.29-.45-.8-.89-1.59-1.36-2.43-.92.2-1.8.4-2.76.62.22.81.34,1.54.61,2.21.28.69.66,1.36,1.07,1.98.38.56.87,1.05,1.34,1.6-.19.51-.87.45-1.16.79-.44.52-.88.35-1.27.16-.44-.21-.82-.57-1.16-.93-.38-.39-.69-.85-1.08-1.34-.19,1.36-.03,2.57.13,3.79.1.73.39,1.26,1.11,1.51.16.05.3.18.48.29-.37.25-.85-.18-1.12.45.97.46,1.93.91,2.87,1.36.14.24.25.66.46.72.69.19.78.87,1.32,1.27-.64.08-1.17.08-1.65.24-.45.15-.86.32-1.35.17-.81-.24-1.63-.43-2.45-.65-.05.06-.11.13-.16.19.3.15.59.3.89.45-.05.07-.09.15-.14.22-.17.02-.34.05-.54.08,0,.26.02.53-.02.78,0,.06-.25.07-.39.12-.27-.11-.54-.22-.81-.33.22.33.47.54.83.3-.01.19-.03.38-.05.64-.74-.36-1.43-.68-2.09-1.05-.47-.26-.98-.52-1.31-.92-.71-.84-1.32-1.76-1.98-2.65-.09-.12-.21-.23-.32-.34-.06.04-.11.07-.17.11.47,1.09.92,2.19,1.41,3.27.82,1.83,2.17,3.19,3.81,4.3.73.49,1.42,1.04,2.13,1.56,0,.11,0,.23,0,.34-.65-.67-.98-.04-1.37.06.17.37.35.76.55,1.17-.36.09-.62.16-.88.21-.41.08-.71-.07-.9-.45-.09-.18-.75-.79-.93-.78-.41.02-.69-.13-.9-.48-.06-.1-.22-.23-.29-.2-.39.15-.44-.15-.63-.36-.34-.37-.63-.97-1.33-.68,0-.38-.15-.66-.56-.74-.21-.04-.43-.08-.64-.12,0,0,.02.02.02.02.02-.19.13-.47.04-.57-.36-.39-.79-.72-1.18-1.06-.1-.35-.16-.78-.36-1.14-.32-.6-.74-1.14-1.09-1.72-.19-.3-.33-.62-.53-1-.44.48-.79.86-1.06,1.16.3.62.6,1.24.9,1.85-.14-.01-.29-.03-.42-.05ZM560.27,1719.51c-.27.33-.53.66-.86,1.06.71-.28.84-.46.86-1.06.23.03.52.22.62-.16.03-.12-.1-.28-.16-.45-.19.25-.33.43-.46.61ZM501.86,1621.91c.09.02.2.09.26.05.74-.44,1.47-.89,2.2-1.34-.97.16-1.9.37-2.44,1.3q-.38.18-.22.57c.07-.2.13-.4.2-.59ZM510.13,1645.74c.06.16.12.33.21.56.32-.21.65-.3.68-.85-.36.13-.64.22-.91.32.07-.14.1-.33.22-.41.46-.3.5-.68.31-1.15-.08-.2-.12-.41-.23-.82-.25.63-.47,1.08-.61,1.55-.09.31-.03.63.33.8ZM528.04,1614.18c.22.15.43.29.69.47.05-.12.16-.31.14-.32-.25-.19-.51-.39-.83-.12.55-.71.06-1.4.02-2.2-.36.18-.63.31-.98.48.19.32.34.57.49.83.16.29.32.58.48.87ZM572.87,1717.67c-.51-.22-.93-.1-1.34.4.56.37,1.09.71,1.74,1.14-.11-.56-.19-.92-.26-1.28.28.23.55.47.98.83-.16-1.01-.79-1.51-1.13-2.19-.08.06-.12.08-.12.1.04.33.09.67.13,1ZM540.91,1614.52c-.16-.04-.38-.16-.46-.1-.75.6-1.47,1.23-2.21,1.85.24.14.42.16.54.08.68-.47,1.35-.95,2.01-1.45.09-.07.07-.26.11-.39.15.01.32.08.44.03.84-.43,1.67-.88,2.5-1.33-1.2-.01-2.09.6-2.93,1.31ZM540.25,1610.97c-.06,0-.13-.03-.19-.02-.75.15-2.01,1.03-2.46,1.69-.12.18-.28.34-.46.47-.83.64-1.51,1.41-1.95,2.36-.06.12,0,.3.02.49.33-.38.62-.67.86-.98.25-.33.41-.73.7-1.01.42-.4.97-.67,1.36-1.09.41-.43,1.12-.59,1.23-1.31.01-.1.26-.15.38-.24.17-.12.32-.26.48-.39.3-.05.6-.1.9-.15-.02-.09-.05-.17-.07-.26-.24.22-.72-.23-.81.43ZM559.87,1619.97c.47.15.94.3,1.41.45q-.7-.85-1.41-.45c.02-.15.04-.31.06-.46-2.02-.79-4.02-1.6-6.18-1.94.78.73,1.7,1.18,2.72,1.43.71.17,1.43.28,2.13.46.44.12.84.33,1.26.5ZM556.82,1614.03c-.31.1-.61.21-.92.31.46-.04.99.33,1.52-.27-.32-.02-.47-.02-.63-.03-1.03-.25-2.06-.58-3.11-.75-1.54-.24-3.09-.36-4.64-.53-2.01-.23-3.89.14-5.74,1.38.69-.14,1.22-.26,1.74-.36,1.74-.34,3.46-.72,5.26-.19.83.25,1.75.25,2.63.3.73.05,1.46,0,2.19,0,.56.01,1.13.07,1.69.11ZM511.11,1618.68c.55.03,1.1.06,1.64.09,0,.38-.13.63-.55.63-.48,0-.95.03-1.42.07-.21.02-.41.12-.62.18.01.07.02.15.03.22.46.03.93.05,1.44.08-.19.32-.37.61-.65,1.07.85-.24,1.51-.45,2.17-.61.68-.17,1.38-.24,2.05-.44.64-.19,1.31.36,1.97-.09-.67-.7-1.51-.87-2.3-1.14-1.18-.4-2.38-.32-3.59-.24-.05,0-.1.13-.15.19h-.75c0,.06.02.11.02.17.24-.06.47-.12.71-.19ZM532.56,1720.55c.5,0,1.03-.11,1.51,0,.89.23,1.73.09,2.61-.01,1.92-.23,3.43-1.27,4.85-2.41,1.34-1.08,2.58-2.29,3.83-3.48.54-.51,1.02-1.1,1.52-1.65-.03-.06-.07-.12-.1-.18-.65.19-1.31.37-1.96.57-.45.14-.89.37-1.35.45-1.25.21-2.51.38-3.77.53-1.47.18-2.94.43-4.42.49-2.41.11-4.83.12-7.24.1-1.04,0-2.07.34-3.11.04-.04-.01-.11.05-.19.1,0,.17.02.36.03.53.29.17.57.3.83.47.47.32.82.87,1.53.72.14-.03.35.23.51.38.45.44.88.9,1.33,1.33.46.44.88.93,1.57,1.04.04,0,.06.11.12.23-.33-.07-.56-.11-.8-.16.35.37.71.69,1.14.87.29.12.67.03,1.01.04.4.43,1.34.72,2.01.56-.25-.15-.52-.26-.79-.35-.22-.08-.45-.14-.68-.21ZM511.85,1675.85c.09.03.18.06.27.08.68.16.77.31.46.88-.09.17-.24.3-.33.46-.32.62-1.03,1.06-.85,1.95.16.14.37.32.68.58-1.11,1.79-2.56,3.33-3.38,5.27.47-.53,1-1.04,1.25-1.66.3-.74,1.13-.76,1.49-1.37.06-.11.28-.2.4-.17.11.02.29.21.28.32-.04.56-.02,1.17-.23,1.67-.51,1.23-1.15,2.41-1.72,3.61-.12.25-.19.53-.31.79-.13.27-.17.53.17.6.14.03.4-.16.49-.32.26-.48.44-1,.69-1.49.3-.59.63-1.16,1-1.84.66.31,1.25.58,1.91.88-1.19.97-3.97,7.45-3.76,8.64.16-.3.29-.59.47-.84.74-1.01,1.35-2.08,1.75-3.27.23-.71.54-1.34,1.31-1.52.25.3.5.59.6.72.43.05.68.07.93.1-.07.22-.1.47-.21.66-.17.29-.44.53-.61.82-.27.45-.6.88-.53,1.7.39-.44.71-.69.89-1.03.33-.62.84-.74,1.59-.72-.35.51-.36.93-.08,1.37.08.13.08.37.01.51-.8,1.69-1.09,3.57-1.98,5.24-.41.77-.45,1.65-.03,2.62.5-.92.94-1.72,1.37-2.52.55-1.03,1.09-2.07,1.65-3.1.21-.38.77-.59,1.15-.47.39.12.53.46.38.75-.33.63-.03,1.12.22,1.64-.66.14-1.19.9-1.12,1.65.33-.42.67-.81.97-1.23.09-.12.09-.3.12-.45.38-.48.75-.96,1.17-1.49.1,0,.31-.03.5-.04q.39-1.69.93-1.85c-.22-.3-.39-.59-.62-.81-.36-.34-.47-.7-.13-1.08.34-.37.68-.83,1.12-1,1.17-.44,1.86-1.43,2.73-2.2.2-.18.47-.5.43-.7-.2-.94.48-1.37.99-1.92.31-.34.58-.71.97-1.19-.49-.07-.81-.12-1.16-.17-.04-1.22.88-2.04,1.2-3.17-.24-.22-.49-.44-.76-.69.17-.31.34-.61.51-.91-.43-.23-.64-.58-.31-.94.35-.38.57-.72.47-1.27-.03-.17.17-.39.28-.59.13-.22.28-.44.53-.84-.86.39-1.37.21-1.8-.43.5-.68,1-1.36,1.54-2.1-.79-.2-1.5-.38-2-.96-.18-.21-.29-.53-.51-.66-.29-.16-.68-.13-1-.26-.49-.2-.55-.48-.36-1,.09-.25.25-.6.15-.76-.21-.32-.47,0-.73.1-.37.15-.81.34-1.17.27-.44-.1-.83-.45-1.34-.75-.41.05-.96.12-1.52.16-.21.01-.49.02-.61-.11-.34-.34-.75-.23-1.13-.33-.47-.13-.53.12-.62.5.81.3,1.6.55,2.36.88.8.35,1.57.78,2.35,1.18q1.65.83,1.9,1.45c-.26-.16-.5-.32-.75-.48-.03.03-.06.07-.08.1.38.48.75.96,1.2,1.52-1.71.57-2.98-.47-4.38-.88-.11.1-.21.17-.29.27-.89,1.01-2.1,1.24-3.33,1.28-.7.02-1.37-.29-1.77-.97-.35-.6-.73-1.18-1.17-1.89-.6.19-1.23.36-1.83.6-.25.1-.47.32-.65.53-.12.15-.15.38-.2.53.55.24,1.03.44,1.49.64.03.33.06.61.09.88-.85.26-1.23,1.05-1.75,1.65-.84.99-1.41,2.17-1.88,3.38-.1.26-.26.49-.39.74.56-.47,1.03-.99,1.41-1.55.93-1.37,2.21-2.53,2.59-4.24ZM587.73,1719.15c-.65-.11-1.3-.27-1.95-.32-.33-.03-.74.03-.99.21-.65.49-1.41.72-2.16.91-1.55.38-3.1.25-4.63-.24.72-.04,1.44.07,2.16.08.74.02,1.51.19,2.34-.39-.77,0-1.37-.02-1.98,0-1.01.03-1.98-.26-2.84-.69-.59-.29-.97-.26-1.45.06.09.11.23.2.22.29-.03,1.18,1.11,1.14,1.71,1.65,1.36.01,2.73.31,4.05-.28.23-.1.51-.11.95-.21-.19.43-.29.68-.41.97.23.25.48.52.73.8-.4.29-.77.55-1.15.81.09.11.13.17.18.2,1.23.63,3.02,1.01,4.43.97.22,0,.46.13.66.09.35-.07.89-.16.97-.37.17-.47.51-.71.81-1.02.26-.27.29-.59.11-.88-.22-.37-.49-.72-.79-1.02-.53-.53-.87-1.05-.97-1.63ZM587.63,1712.93c.61.11,1.15.26,1.7.29.63.03.9.24.75.81-.09.33-.27.64-.46.93-.57.87-1.29,1.61-2.13,2.25.17.01.3-.02.42-.09,1.18-.63,2.01-1.63,2.82-2.66.38-.49.69-.97.8-1.58.31-1.63.48-3.27.38-4.93-.04-.69-.32-1.27-.94-1.68-1.04,1.12-2.06,2.2-3.13,3.35.33,1.17-.88,1.43-1.55,2.14h1.34v1.17ZM539.53,1605.49c-.1.29.47.32.23.65.27-.02.55-.03.82-.06.22-.03.43-.1.65-.13,2.32-.35,4.64-.65,6.95-1.07.99-.18,1.84.05,2.71.42-.09.16-.16.29-.25.48.61.09,1.21.15,1.73.41.59.3,1.1.72,1.66,1.07.5.31,1.02.6,1.57.92-.3.31-.44.71,0,1.22.48.09,1.05.19,1.62.29-.08-.32-.29-.44-.37-.62-.09-.21-.03-.47-.1-.7-.04-.13-.19-.23-.31-.32-.2-.15-.42-.27-.63-.41-.91-.58-1.77-1.26-2.73-1.73-1.32-.65-2.7-1.17-4.08-1.71-1.81-.71-3.68-.89-5.58-.38-.1.03-.28.06-.28.09,0,.62-.49.47-.83.54-.22.04-.45.03-.65.11-.72.29-1.43.62-2.14.92ZM579.44,1679.68c-.3.51-.6.9-.76,1.33-.46,1.25-.87,2.52-1.3,3.78-.33,1,.76,2.42,1.81,2.35.68-.04,2.1-1.47,2.12-2.13,0-.06-.02-.12-.04-.18-.42-1.75-.8-3.52-1.83-5.15ZM524.38,1621.59c.45-.82.08-1.32-.21-1.78-.72-1.13-1.58-2.11-2.71-2.9-1.43-1-2.98-1.6-4.66-1.78-1.54-.16-3.11-.13-4.67-.09-.85.02-1.7.24-2.66.38.75.56,1.43.4,2.13.3,1.04-.15,2.09-.17,3.13-.31,1.12-.15,1.83.85,2.85.94.04,0,.07.21.12.36.71-.36,1.25-.08,1.83.25,1.05.61,1.9,1.46,2.76,2.28.39.37.73.79,1.09,1.19.31.35.61.7,1,1.15ZM585.89,1697.53c.67,1.29,1.46,2.58,1.64,4.14.23-.03.41-.05.59-.08.22-1.26.54-2.47.62-3.7.09-1.27.18-2.57-.22-3.96-.34.39-.55.79-.88.96-.47.24-.7.62-.92,1.05-.27.51-.54,1.01-.84,1.58ZM488.3,1706.02c-.06.06-.12.12-.18.18.32,1.23,1.21,2.26,2.24,2.27,1.52.02,3.07.03,4.55-.26,1.33-.26,2.59-.92,3.88-1.42.19-.07.44-.25.46-.41.09-.68.1-1.36.14-2.01-.81-.31-1.15.28-1.61.58-1.34.9-2.64,1.86-4.03,2.67-.6.35-1.37.48-2.07.5-.25,0-.45.01-.71.07-.2.04-.48-.44-.73-.45-.76-.05-1.18-.48-1.51-1.09-.12-.22-.28-.41-.42-.62ZM493.65,1701.9c-.78-.04-1.35.49-2.03.74-.69.25-1.4.42-2.16.64.15.41.29.8.46,1.28-.25-.06-.4-.09-.72-.17.18.26.25.47.38.51.16.05.36-.04.55-.07.76,1.02,1.19,1.2,2.21.89-.2-.76.27-1.27.7-1.77.36-.42.81-.78,1.2-1.15-.21-.31-.4-.6-.61-.9ZM484.21,1741.09s.08.08.12.13c3.36-2.64,6.71-5.28,10.09-7.94-1.22.46-2.42.86-3.57,1.38-.71.32-1.44.72-2,1.24-.87.82-1.59,1.78-2.38,2.67-.75.84-1.51,1.68-2.27,2.52ZM533.19,1614.48c1.19-1.25,2.38-2.4,3.75-3.34.24.14.44.25.58.34.3-.1.11-.52.53-.47.22.02.45-.29.7-.35.8-.19,1.54-.68,2.44-.46.32.08.71.03,1.02-.09.88-.35,1.74-.77,2.6-1.16-.97,0-1.92.11-2.87.16-1.96.1-3.77.71-5.5,1.56-.96.47-1.68,1.2-2.04,2.17-.33.09-.6.16-.94.26-.08.45-.17.92-.26,1.4ZM585.91,1702.85c-.04-.53-.08-1-.12-1.48.06-.01.12-.02.18-.03.08.27.16.54.24.82.04,0,.08-.02.12-.02-.1-.86-.19-1.73-.3-2.62-.57.23-.78-.25-.99-.56-.66.61-1.27,1.16-1.87,1.72.49.04.95.08,1.51.13-.46.84-.86,1.58-1.25,2.31,0,.02.02.05.05.13h.68c.14.68.08.82-.51,1.13-.44.23-.88.45-1.48.76,1.6.24,2.64-.63,3.08-2.37.2.03.4.05.66.08ZM520.56,1699.76c.61,0,1.09.18,1.1.88.29-.18.53-.32.76-.48.84-.54.99-.99.47-1.8-.38-.58-.37-1.19-.38-1.82,0-.41-.04-.82-.07-1.39-.67.73-1.28,1.25-1.69,1.9-.28.44-.24,1.08-.38,1.61-.09.33-.26.64-.38.96-.11.31-.21.63-.31.94.07.04.13.08.2.11-.03-.54.86-.24.69-.92ZM491.1,1685.13c.51-.22,1.02-.51,1.56-.65.81-.2,1.39-.69,1.96-1.26.29-.29.38-.56.24-.94-.07-.2-.11-.42-.17-.67-.45-.06-.89-.11-1.36-.17.04.22.07.38.08.46-.41.35-.86.58-1.08.95-.26.46-.51.82-1.01,1.05-.57.26-.61.63-.22,1.22ZM576.35,1630.22c0,.26-.02.42,0,.57.18.95.36,1.9.58,2.84.14.63.17,1.34.87,1.7.02.01.01.1.02.15-.15.02-.29.05-.33.05.28,1.11.55,2.18.82,3.24.21-.76.31-1.51.26-2.24-.05-.72-.22-1.44-.38-2.15-.17-.74-.22-1.63-.67-2.16-.52-.6-.28-1.52-1.16-2.01ZM523.27,1703.92c-.21-.3-.26-.45-.35-.5-.52-.24.22-.38.04-.59.8.19.65-.53.88-.86-.04-.08-.04-.12-.06-.13-.11-.04-.22-.07-.33-.1-.12-.57.93-1.03.05-1.76-.72,1.26-1.48,2.47-2.11,3.74-.37.75-.53,1.59-.82,2.53.3-.09.43-.13.57-.16-.35-.33.06-.48.17-.69.24-.43.55-.83.76-1.28.29-.61.35-.64,1.2-.21ZM485.17,1714.08c-.06.06-.12.11-.18.17.54.69,1.1,1.36,1.61,2.08.38.53.98.36,1.52.7-.07-.52-.13-.89-.18-1.29.45-.08.62-.41.47-.75-.08-.18-.46-.34-.69-.33-.9.04-1.73-.19-2.54-.57ZM542.1,1633.59c-.58.21-1.06-.02-1.39-.44-.21-.27-.39-.26-.64-.18-.25.08-.5.15-.75.25-.34.14-.81-.16-.92-.08-.65.48-1.35.22-2.02.31-.38.06-.76.15-1.14.22,0,.07.01.14.02.21,2.33.12,4.66.23,6.99.35.01-.14.03-.21.02-.26-.03-.09-.08-.17-.17-.38ZM491.27,1694.25c1.07.78,1.82.99,3.01.83-.41-.3-.78-.57-1.13-.82.24-.35.43-.63.65-.94-.28-.26-.5-.53-.78-.73-.42-.31-.64-.27-.92.18-.3.48-.55.99-.82,1.48ZM489.45,1697.52c.88.41,1.7.82,2.54,1.15.22.09.57,0,.81-.11.44-.22.42-.66-.03-.89-.64-.33-1.3-.64-1.95-.97-.24-.12-.47-.26-.77-.43-.22.45-.39.81-.6,1.24ZM489.7,1718.11c-.08.76-.02.85,1.9,2.33.29.23.57.66,1.07.24-.26-.75-.52-1.48-.72-2.07-.85-.19-1.54-.34-2.24-.5ZM582.26,1712.96c-.04-.1-.08-.21-.11-.31-.23.03-.5-.01-.69.09-.89.47-1.79.29-2.69.11-.37-.07-.54-.23-.63-.67-.18-.87-.34-1.87-1.6-2.01.46,1.05.93,2.07,1.64,2.96.14.17.42.31.64.32.76.04,1.53.07,2.29-.01.4-.04.78-.32,1.16-.49ZM484.17,1710.36q-.31.48-.08.86c.93,1.55,2.16,2.4,3.48,2.31-1.17-1.1-2.28-2.13-3.4-3.18ZM563.6,1618.39s.07-.1.1-.15c-.19-.21-.37-.43-.57-.62-.09-.08-.23-.1-.34-.17-1.71-.95-3.6-1.44-5.45-2.03-.11-.04-.24-.02-.36-.02-.01.04-.03.09-.04.13,2.22.95,4.44,1.9,6.66,2.85ZM495.58,1676.32c-1.46.96-1.91,2.34-2.44,3.64-.18.43.2.59.66.56.27-.94.54-1.87.81-2.82.25.21.43.37.61.52.83-.48.32-1.13.36-1.91ZM525.54,1734.58c-.66.54-1.26,1.03-1.87,1.52-1.32,1.05-1.43,1.18-1.53,1.66,1.24-.63,2.48-1.27,3.71-1.9-.12-.48-.2-.84-.31-1.28ZM586.26,1714.77c-1.38.32-2.6.61-3.94.92.24.29.35.56.54.65.36.18.77.3,1.17.37.35.06.64-.22.84-.64.08.06.16.12.35.27-.19-.76-.01-1.18.71-1.2.08,0,.15-.16.32-.37ZM496.08,1717.24c-.4-.04-.76-.07-1.1-.1-.03.4-.05.74-.08,1.12h-1.17c.26.49.47.88.67,1.26,1.14-.41,1.74-1.08,1.68-2.28ZM566.83,1646.4c-.49-.82-1.01-1.69-1.53-2.56-.07.02-.14.04-.21.06-.03.51-.06,1.02-.08,1.5.25.08.39.12.59.19-.55.99.48,1.11.82,1.66.13-.29.24-.51.4-.86ZM531.86,1606.73c-.1-.08-.2-.16-.29-.24-.16.22-.28.48-.48.67-.5.47-1.06.89-1.53,1.38-.6.62-.57.79.07,1.5.74-1.1,1.49-2.2,2.23-3.31ZM475.64,1738.37c.88-.39,1.58-.69,2.27-.99.71-.3,1.55-.4,2.11-1.23-.35,0-.59-.07-.76.01-1.15.5-2.3,1.03-3.43,1.58-.11.06-.11.34-.19.62ZM554.94,1624.69c.45.96,1.3,1.45,2.15,2,.18-.2.37-.41.6-.65-.37-.32-.78-.55-1.03-.9-.46-.63-1.01-.66-1.72-.45ZM496.62,1691.01c-.17-.65-.21-1.23-.55-1.76-.67.45-1.29.86-1.95,1.29.36.28.68.74,1.09.41.28-.22.37-.17.62-.04.2.1.47.07.8.1ZM577.25,1716.05c.09.18.12.37.23.44,1.15.65,2.38.98,3.81.9-.15-.11-.23-.2-.32-.24-.77-.33-1.61-.54-2.28-.99-.52-.35-.9-.28-1.43-.1ZM478.18,1741.79c1.63-.93,3.25-2.33,3.48-2.9-1.71.3-2.58,1.63-3.48,2.9ZM581.76,1697.72c.94-.6,2.19-.59,2.26-2.06-.18-.01-.44-.11-.56-.02-.68.52-1.5.93-1.71,2.08ZM566.22,1619.12c-.35,1.21.52,1.59,1.25,2.08.19-.12.35-.22.58-.36-.59-.62-.82-1.55-1.83-1.72ZM571.34,1687.24h.16c.21-.84.43-1.7.63-2.56.07-.31.15-.62.18-.93,0-.11-.16-.35-.21-.34-.15.03-.3.13-.41.25-.08.08-.11.23-.12.35-.08,1.07-.15,2.15-.23,3.23ZM511.41,1610.3c.67,0,1.29-.01,1.92,0,.63.01,1.26.22,1.97.06-1.33-.72-2.58-1.1-3.89-.07ZM489.46,1715.26c.1.49.13,1.03.24,1.05.56.09.73.72,1.24.8.18.03.39-.1.54-.15.15-1-.93-.66-1.17-1.23-.08-.19-.44-.26-.84-.47ZM493.29,1687.33c-.03.09-.06.19-.1.28.28.26.56.53.84.79.25-.27.52-.51.74-.8.12-.16.13-.39.24-.74-.67.18-1.2.33-1.73.47ZM536.34,1624.43c.35-.37.37-.82.13-1.21-.11-.18-.5-.33-.72-.29-.42.08-.81.31-.83.85q1,.17,1.42.65ZM495.39,1736.67c-1.24.68-3.04,2.6-3.23,3.36.62-.62,1.16-1.14,1.69-1.69.52-.55,1.03-1.11,1.54-1.67ZM520.69,1732.02c.62-.23,1.13-.42,1.77-.66-.36-.39-.61-.65-.91-.97-.34.54-.92.8-.86,1.63ZM543.24,1621.49c-.92-.46-1.67-.96-2.49-.04.78.53,1.55.3,2.49.04ZM573.33,1687.49c.1.04.19.07.29.11.26-.68.55-1.36.75-2.06.06-.22-.12-.51-.19-.77-.05,0-.1,0-.14.01-.24.9-.47,1.8-.71,2.7ZM582.82,1686.62c-.18.34-.38.69-.62,1.14.64.02,1.15.35,1.68-.25-.32-.27-.65-.55-1.06-.89ZM542.24,1700.73c-.97-.3-1.55-1.04-2.49-.89.72.9,1.59,1.27,2.49.89ZM516.25,1674.64c-.21-.12-.49-.18-.58-.35-.24-.45-.67-1.05-1.08-1.34-.05,1.22.4,1.69,1.66,1.69ZM516.66,1640c-.28-.32-.48-.55-.68-.79-.5.57-.36,1.32.39,2.14.05-.49-.43-1.04.29-1.35ZM499.65,1721.55c-1.11.19-2.23.37-3.52.59.3.16.47.33.6.3,1-.18,2.04-.27,2.91-.89ZM488.55,1695.51c-.35-.19-.62-.33-.9-.49-.36.65-.24,1.18.11,1.76.27-.43.5-.8.79-1.27ZM499.6,1732.07c.96-.56,1.74-1.14,2.47-1.93-.85.21-1.98,1.08-2.47,1.93ZM521.24,1624.59c-1.01-.2-1.23,0-1.01.93.4-.21,1.1-.05,1.01-.93ZM509.59,1729.9c1.26-.25,1.5-.53,1.37-1.58-.46.52-.9,1.03-1.37,1.58ZM516.18,1607.48h2.04c-.98-.7-1.09-.7-2.04,0ZM511.71,1647.97c-.16-.52-.25-.8-.39-1.25-.39.35-.68.6-1.07.93.31.03.47.04.63.08.2.04.4.11.82.24ZM572.07,1708.83c-.17.12-.34.24-.57.41.33.35.61.65.98,1.04.15-.66,0-1.06-.4-1.45ZM493.07,1709.04c1.69,0,2.53-.25,2.8-.65-.94.22-1.87.43-2.8.65ZM537.5,1621.09c.53.04.92.12,1.31.09.45-.03.39-.3.21-.59q-1.04.12-1.51.49ZM531.97,1613.46c-.56.64-.57.81-.05,1.56.26-.54.31-1.02.05-1.56ZM572.51,1666.34c.04.37.06.62.1,1.01.39-.32.67-.54,1.04-.84-.41-.06-.7-.1-1.14-.16ZM574.12,1692.7c-.06.05-.11.09-.17.14.19.91.34,1.06.99.85-.29-.35-.55-.67-.82-.99ZM565.7,1637.92q.22,1.29.75,1.52c.18-.75-.57-.99-.75-1.52ZM490.83,1709.12c.9.41,1.52.39,1.91,0h-1.91ZM490,1731.63c.73.2,1.31,0,1.6-.77-.53.26-1.06.52-1.6.77ZM566.69,1651.34c.55-.8.51-.96-.37-1.52.13.52.23.96.37,1.52ZM537.76,1720.97c-.6-.27-1.16-.06-1.86.08.75.52,1.3.15,1.86-.08ZM514.85,1670.02c-.26-.47-.57-.22-.85-.18-.31.05-.64.02-1.08.35.77-.07,1.32-.11,1.93-.17ZM560.76,1623.5c-.05.05-.09.11-.14.16.4.35.79.69,1.19,1.04-.01-.79-.68-.82-1.05-1.2ZM553.25,1611.6c.02-.08.04-.17.06-.25-.77-.07-1.54-.15-2.31-.22,0,.08-.01.15-.02.23.76.08,1.52.16,2.27.24ZM528.17,1736.47c.16.28.26.46.4.72.26-.34.44-.58.71-.93-.41.08-.7.14-1.11.22ZM517.81,1624.8c1.13.2,1.18.18,1.24-.37-.44.13-.84.25-1.24.37ZM518.43,1626.04c-.69.01-1.36.07-1.87.65.62-.22,1.24-.44,1.87-.65ZM545.74,1633.23c-.07.02-.14.04-.21.05-.23,1.04-.19,1.12.57.95-.12-.34-.24-.67-.36-1ZM520.7,1632.73c-.59.17-.72.49-.67,1.23.24-.44.46-.84.67-1.23ZM520.72,1672.43c.05-.08.11-.17.16-.25-.61-.04-.88-.7-1.49-.72-.03.06-.07.13-.1.19.48.26.96.52,1.44.78ZM532.2,1625.78q-.26.94.47,1.08c-.14-.31-.26-.61-.47-1.08ZM491.7,1688.85c-.24-.22-.48-.43-.73-.64,0,0-.18.12-.18.18.06.45.4.57.9.46ZM497.82,1688.25v-1.58c-.48.52-.35.95,0,1.58ZM538.13,1617.58c.82.14.93-.35,1.17-.69-.04-.05-.08-.1-.12-.16-.31.25-.63.51-1.05.85ZM571.32,1695.44c.08-.04.16-.09.25-.13-.14-.39-.31-.76-.69-.99-.06.04-.12.07-.18.11.21.34.41.67.62,1.01ZM501.57,1632.87c.07.05.15.1.22.15.27-.37.54-.74.81-1.11-.04-.03-.09-.07-.13-.1-.3.35-.6.71-.9,1.06ZM529.44,1621.51q.03-.64-.56-.85c.22.34.39.6.56.85ZM563.24,1647.11s-.08,0-.11,0v1.65s.08,0,.11,0v-1.65ZM544.91,1697.06c-.08-.02-.15-.05-.23-.07-.12.39-.24.78-.36,1.17.07.02.14.05.22.07.12-.39.25-.78.37-1.16ZM498.25,1701.91c-.33-.06-.52-.1-.79-.15v.9c.31-.3.5-.48.79-.75ZM573.69,1626.78c-.43.39-.52.72.21.92-.08-.36-.15-.64-.21-.92ZM512.38,1611.24c.28.35.51.41.78.06-.22-.28-.41-.43-.78-.06ZM500.22,1656h-.25v1.32s.1,0,.15,0c.03-.44.07-.89.1-1.33ZM523.02,1692.99c-.26.26-.51.52-.77.78.59.08.74-.27.77-.78ZM544.61,1603.13s0,.08,0,.11h1.36s0-.08,0-.11h-1.37ZM579.88,1718.84s-.05.08-.07.12h1.33s0-.08,0-.12h-1.26ZM553.07,1617.85c-.04.05-.08.1-.12.16.35.24.66.56,1.33.36-.5-.21-.86-.36-1.21-.51ZM580.02,1699.14c-.45.1-.71.15-1,.21.37.46.64.39,1-.21ZM571.33,1660.3c.08-.38.12-.57.17-.81-.66.07-.6.31-.17.81ZM529.01,1706.93s-.09-.08-.14-.12c-.19.22-.38.44-.58.66l.17.14.55-.69ZM517.85,1671.05c0-.06.02-.11.03-.17l-1.13-.22c-.01.07-.02.13-.03.2.38.06.75.12,1.13.19ZM489.8,1732.25q-.42-.46-.7-.09c.24.03.44.06.7.09ZM516.3,1635.84c-.2.34-.31.55-.53.92.56-.18.86-.28.53-.92ZM497.45,1724.14c.43.03.77.16,1.15-.37-.48.15-.76.24-1.15.37ZM519.67,1647.83c.07-.04.15-.09.22-.13-.12-.15-.24-.3-.36-.45-.03.02-.06.04-.1.06.08.17.15.34.23.51ZM550.27,1605.58v-.13h-1.16s0,.09,0,.13h1.16ZM550.67,1610.3c.35.41.76.29,1.18.13l-1.18-.13ZM495.97,1721.51c.36.02.56.03.78.05q-.21-.53-.78-.05ZM512.12,1722.44s.07-.02.11-.03c-.04-.22-.09-.43-.13-.65-.07.02-.13.04-.2.06.07.21.15.42.22.62ZM575.2,1690.99q.42-.18.05-.57c-.02.19-.03.37-.05.57ZM511.89,1721.16c.07-.34.33-.67,0-1.02v1.02ZM490.88,1702.58c-.02-.07-.05-.15-.07-.22-.19.09-.39.18-.58.28.01.04.03.07.04.11.2-.05.4-.11.61-.16ZM493.73,1730.28c-.41.17-.64.26-.9.37.45.36.66.13.9-.37ZM537.26,1617.31c-.19.21-.38.42-.58.63.05.05.1.09.15.14.29-.13.57-.26.42-.76ZM549.12,1732.53c.06.05.12.09.18.14.14-.24.52-.3.32-.8-.16.22-.33.44-.49.66ZM488.83,1732.54c0-.08,0-.15,0-.23-.28-.2-.47.05-.68.29.23-.02.46-.04.68-.05ZM529.88,1626.15c-.14.37-.05.61.39.65-.13-.22-.26-.44-.39-.65ZM473.72,1738.84q-.46.29-.42.67c.14-.23.24-.39.42-.67ZM562.78,1643.23c.07,0,.14-.02.21-.03-.05-.27-.1-.53-.15-.8-.05,0-.09.01-.14.02.03.27.06.54.09.81ZM578.55,1639.4c-.07.04-.14.07-.2.11.09.17.18.34.27.51.05-.03.1-.06.16-.09-.08-.18-.15-.35-.23-.53ZM518.66,1612.02q-.36-.32-.58.03c.2-.01.37-.02.58-.03ZM539.5,1617.26s.08.09.11.13c.21-.18.43-.36.64-.54-.04-.05-.09-.11-.13-.16-.21.19-.41.38-.62.57ZM528.31,1618.53c.08-.18.19-.3.17-.38-.02-.1-.16-.16-.24-.25-.07.08-.22.18-.2.23.04.12.15.23.28.4ZM543.47,1608.07c0-.06-.01-.11-.02-.17-.24.01-.48.03-.71.04v.12h.73ZM519.7,1650.57c-.02.05-.05.11-.07.16.2.08.4.15.6.23.02-.04.04-.09.05-.13-.2-.09-.39-.17-.59-.26ZM522.64,1715.95c-.07.03-.14.05-.21.08.07.15.15.3.22.45l.13-.06c-.05-.16-.1-.32-.14-.48ZM567.34,1652.63h-.17c0,.1-.01.19-.03.28-.01.09-.03.18-.05.28.06,0,.13.02.19.03.02-.19.04-.39.06-.58ZM497.78,1721.15c.02-.06.04-.12.06-.18-.19-.07-.39-.14-.58-.2-.02.06-.04.12-.06.17.19.07.39.14.58.21ZM545.99,1631.71l.25-.11c-.09-.15-.18-.29-.26-.44-.06.03-.11.06-.17.1.06.15.12.3.18.45ZM519.63,1633.47c-.07-.04-.14-.08-.21-.12-.09.2-.18.4-.27.6l.16.08c.11-.18.22-.37.32-.55ZM552.8,1627.16c-.04.05-.09.11-.13.16.11.08.21.16.32.23.01,0,.08-.08.12-.12-.1-.09-.2-.18-.3-.27ZM567.03,1643.26c.09-.4.23-.67-.32-.87.12.34.2.54.32.87ZM579.65,1721.58s0,.08,0,.12c.2-.01.4-.02.6-.04,0-.04,0-.08,0-.12-.2,0-.4.02-.6.03ZM572.74,1623.78s.06-.04.09-.07c-.11-.16-.23-.33-.34-.49l-.13.1c.13.15.26.31.38.46ZM492.86,1722.86l-.06.17c.18.06.36.12.54.17.01-.04.03-.08.04-.13-.17-.07-.35-.14-.52-.21ZM541.45,1608.27c-.02-.07-.04-.13-.06-.2l-.63.1s.01.1.02.14l.67-.05Z"/>
    <path class="cls-1" d="M513.83,1747.07c.61-.56,1.39.16,2-.43-1.93-.56-3.78-.64-5.63-.76-1.23-.08-2.45-.33-3.68-.48-.44-.06-.97-.32-1.27.37,0-.13.02-.26.03-.45-.22-.03-.45-.07-.68-.1-.16-.47.09-.65.44-.84.74-.39,1.54-.36,2.33-.34,1.39.04,2.78.07,4.17.15,1.78.09,3.56.23,5.33.34,2.13.13,4.14.63,6.12,1.46,1.17.49,2.37.93,3.47,1.55.85.48,1.68,1.03,2.46,1.61,1.08.8,2.22,1.45,3.77,1.62-.35.29-.58.48-.87.71.37.47-.02.95-.17,1.37-.18.52-.85.51-1.34.47-1.3-.09-2.54-.47-3.66-1.14-.78-.47-1.54-1-2.33-1.44-2.62-1.46-5.29-2.78-8.32-3.19-.7-.09-1.39-.3-2.17-.47ZM516.67,1747.07s.04-.08.05-.12c-.22-.11-.44-.22-.66-.33-.03.06-.05.11-.08.17.23.1.45.19.68.29ZM530.9,1752.82c0-.07,0-.13,0-.2-.16,0-.32-.01-.49-.02,0,.07,0,.21,0,.21.16.01.32,0,.48,0Z"/>
    <path class="cls-1" d="M548.27,1750.32c1.46-.35,2.48-1.42,3.71-2.16,2.61-1.57,5.14-3.26,7.89-4.6,2.09-1.02,4.29-1.53,6.52-1.99.4-.08.8-.08,1.14.29.19.21.55.27.84.38.27.11.55.2,1.04.38-.71.32-1.14.63-1.38,1.18-.08.18-.41.26-.64.35-2.17.86-4.38,1.64-6.51,2.58-2.03.9-3.99,1.96-5.97,2.94-1.16.58-2.32,1.18-3.5,1.72-.62.29-1.24.54-1.99.39-.33-.07-.49-.13-.62-.4-.16-.33-.33-.66-.53-1.06Z"/>
    <path class="cls-1" d="M532.13,1743.74h.8c-.51-.53-.98-1.02-1.45-1.52.33-.29.59-.37,1.04-.24.53.15,1.18.09,1.73-.06.44-.11.61.12.93.43.17-.86.86-.56,1.33-.67.7-.17,1.43-.46,2.16.09.24.17.74.05,1.11-.02.95-.17,1.85,0,2.79.14-.04.14-.03.23-.07.25-.94.61-1.84,1.32-2.85,1.78-.73.33-1.61.33-2.42.44-.68.09-1.37.18-2.05.19-1.07.03-2.11-.16-3.02-.81ZM533.22,1743.7c-.01.08-.03.16-.04.24.45.07.9.14,1.35.21.01-.06.02-.12.03-.18-.45-.09-.89-.18-1.34-.27Z"/>
    <path class="cls-1" d="M526.2,1610.92c-.25-.35-.51-.69-.76-1.04-.02-.02.05-.11.13-.25.28.42.53.8.78,1.18-.05.04-.1.08-.15.12Z"/>
    <path class="cls-1" d="M594.11,1709.96c-.06.5-.11,1-.18,1.64-.17-.8-.15-.99.18-1.64Z"/>
    <path class="cls-1" d="M553.16,1728.95c-.25.29-.5.57-.75.84q.17-.6.75-.84Z"/>
    <path class="cls-1" d="M560.09,1672.63v.57c-.24-.27-.74-.02-.57-.68.1-.36-.41-.41-.76-.46.15.14.3.28.46.43-.08.05-.15.12-.17.11-.36-.25-1.03-.21-.9-.96.02-.09-.37-.32-.59-.38-.55-.13-1.11-.2-1.76-.31.6.61,1.47.36,2.2.87-1.26.14-2.24-.52-3.33-.59-.08.44-.17.81-.23,1.18-.31,2.14-2.39,2.98-4.12,1.61-.78-.62-1.49-1.34-2.26-2.04-.02.09-.06.26-.11.47-1.9.77-2.77,2.63-4.07,4.28-.31-.5-.58-.94-.95-1.54-.23.37-.4.63-.55.87-.46-.08-.81-.14-1.14-.19-.31-.43-.26-.88-.11-1.3.35-1.02.73-2.04,1.11-3.06.28-.77.57-1.54.86-2.31.03-.09.05-.19.09-.27.14-.33.29-.73.71-.65.28.05.52.32.79.51.21-.09.54-.22.92-.38-.2-.04-.36-.08-.67-.14.49-.34.89-.61,1.41-.97.1.14.34.33.37.56.09.69.22.85.94.83.07-.56-.39-1.19.3-1.66.31-.21.54-.31.88-.02-.07.55-.47,1.08-.32,1.69-.67.53-.02,1.08-.09,1.67.92-.21.68-1.03.93-1.55.04-.09-.11-.27-.15-.36.18-.29.41-.6.59-.94.22-.42.39-.86.58-1.29.15-.33.44-.38.73-.27.35.14.29.45.18.73-.23.55-.49,1.09-.71,1.64-.09.22-.11.47-.1.74.55-.55,1.18-1.01,1.49-1.77.18-.47.5-.88.75-1.32.23-.4.52-.25.82-.12.04.97.87,1.98-.28,2.87,1.07.26.64-.71.98-.98.09,0,.19,0,.2.01.24.86.86,1.09,1.69,1.3,1.41.36,2.79.86,4.09,1.55.47.25.97.44,1.46.66-.32.5-.6.92-.94,1.45-.1-.01-.37-.05-.64-.08ZM549.77,1671.97c-.31,1,.38,1.27.85,1.63.66.51,1.26.15,1.86-.14-.91-.5-1.77-.98-2.71-1.49ZM545.4,1672.19c.18,0,.28.02.29,0,.04-.09.05-.2.07-.3-.1.08-.19.16-.36.3ZM546.2,1670.36c.07.02.15.03.22.05.03-.12.06-.24.08-.37,0-.01-.1-.04-.15-.06-.05.13-.09.26-.14.38Z"/>
    <path class="cls-1" d="M539.46,1665.46c.09-.57.07-.98.22-1.31.14-.31.42-.65.72-.79,1.33-.6,2.71-1.09,4.04-1.7,2.49-1.13,5.18-1.51,7.81-2.1,1.49-.33,3-.6,4.51-.82.78-.11,1.58-.08,2.37-.08.92,0,1.74.38,2.54.76,1.18.56,2.35,1.14,3.49,1.76,1.17.63,1.99,1.61,2.65,2.88-.31,0-.49.04-.65,0-.38-.11-.66-.16-1.04.14-.26.2-.81.16-1.19.06-1.39-.36-2.74-.87-3.88-1.77-1.09-.86-2.26-1.03-3.56-.76-2.11.45-4.21.98-6.35,1.33-2.77.45-5.45,1.23-8.15,1.97-.73.2-1.48.37-2.23.48-.39.06-.8-.03-1.3-.05ZM546.2,1662.02c-.96,0-3.06.75-3.54,1.32,1.18-.44,2.36-.88,3.54-1.32ZM548.48,1661.42c0-.08-.01-.15-.02-.23-.45.1-.9.2-1.36.3.01.06.03.13.04.19.44-.09.89-.18,1.33-.27Z"/>
    <path class="cls-1" d="M529.51,1708.11c.54-.06,1.1.15,1.63-.28.2-.17.67-.06,1.01-.01.47.07.92.25,1.39.32.91.14,1.71-.05,2.23-.9.1-.16.25-.28.28-.31-.2-1.07-.4-2.06-.56-3.05-.05-.31-.09-.65.36-.76.43-.1.7.05.87.53.07.18.08.37.12.56.19.95.39,1.91.63,3.07-.6.59-1.36,1.29-2.08,2.03-.4.41-.75.46-1.27.2-.47-.23-1.02-.31-1.53-.44-.12-.03-.26-.02-.38-.06-.45-.14-.88-.37-1.34-.44-.45-.06-.92.04-1.47.07.06-.24.1-.41.13-.58,0,0-.03.03-.03.03Z"/>
    <path class="cls-1" d="M547.33,1675.63c.74-.11,1.49-.22,2.23-.33.77-.11,1.55-.19,2.31-.33,1.08-.2,2.18-.39,3.24-.69.64-.18,1.11-.02,1.58.35-.01.7-.64.82-1.05.96-1.04.37-2.1.69-3.25.65-.91-.04-1.83.07-2.73.21-.72.11-1.36-.19-2.04-.27-.12-.01-.22-.19-.33-.29.01-.09.03-.17.04-.26Z"/>
    <path class="cls-1" d="M531.07,1725.89c.54-.66,1.06-.71,1.72-.6,1.56.24,3.13.37,4.72.25.4-.03.8.05,1.18.07.2.53-.1.75-.44.85-.7.2-1.4.46-2.12.49-.87.04-1.76-.08-2.63-.21-.57-.09-1.21.1-1.72-.34-.21-.18-.44-.32-.71-.51Z"/>
    <path class="cls-1" d="M554.55,1665.5c.08.5-.3,1,0,1.5.07.12.15.23.23.36-.32.19-.46-.03-.54-.28-.17-.57-.03-1.08.3-1.56v-.02Z"/>
    <path class="cls-1" d="M554.55,1665.52c.24-.13.48-.26.72-.39q.29.46-.34.88c-.12-.16-.25-.33-.38-.5,0,0,0,.02,0,.02Z"/>
    <path class="cls-1" d="M528.5,1638.08c.22.13.44.25.76.44-.69.23-.66-.17-.73-.47,0,0-.03.03-.03.03Z"/>
    <path class="cls-1" d="M541.13,1709.19c-.17-.05-.35-.1-.52-.15,0-.05.02-.09.03-.14.18.01.35.03.53.04-.01.08-.03.16-.04.24Z"/>
    <path class="cls-1" d="M531.06,1675.04c-.21-.33-.29-.46-.39-.6q.38-.03.39.6Z"/>
    <path class="cls-1" d="M545.84,1692.26c.13.15.26.3.4.45-.06.06-.12.12-.18.18-.14-.15-.27-.3-.41-.45.07-.06.13-.13.2-.19Z"/>
    <path class="cls-1" d="M521.84,1675.52c-.23.21-.33.36-.46.41-1.04.4-2.08.79-3.12,1.17-.17.06-.38.05-.56.03-.81-.11-1.48.07-1.93.82-.13.21-.32.39-.48.59-.24.31-.48.23-.73.01.25-.4.5-.8.81-1.29-.63-.26-1.2-.49-1.86-.76-.03-.14-.07-.37-.12-.6.15-.06.24-.13.32-.13,1.14.03,2.28.09,3.42.09.43,0,.91-.08,1.3-.27.83-.41,1.7-.46,2.58-.37.25.02.49.18.83.31Z"/>
    <path class="cls-1" d="M521.21,1683.5c0,.14.08.32.02.41-.31.42-.64.82-.99,1.2-.51.57-1.05,1.12-1.64,1.75-.19-1,.56-1.41.94-2.02.4-.65.92-1.14,1.69-1.32l-.02-.02Z"/>
    <path class="cls-1" d="M516.44,1689.11c-.17-.47-.14-.86.56-1.04-.24.44-.4.74-.56,1.04Z"/>
    <path class="cls-1" d="M514.66,1679.14c-.18.16-.28.26-.43.4-.13-.22-.23-.39-.44-.75.39.16.58.24.87.36Z"/>
    <path class="cls-1" d="M514.73,1684.86c-.03.17-.06.33-.11.49,0,.02-.17-.01-.26-.02l.12-.52c.08.02.16.03.24.05Z"/>
    <path class="cls-1" d="M517.47,1687.58c.15-.59.53-.36.84-.33-.26.1-.51.21-.84.33Z"/>
    <path class="cls-1" d="M523.28,1685.8c-.1-.12-.19-.17-.19-.23,0-.08.05-.19.11-.22.06-.03.16.04.24.07-.04.1-.09.21-.16.38Z"/>
    <path class="cls-1" d="M517.77,1694.36c-.11.15-.23.29-.4.51-.18-.43-.05-.57.2-.65.07.05.13.1.2.15Z"/>
    <path class="cls-1" d="M513.95,1679.49c-.1.15-.2.31-.31.46,0,0-.15-.07-.14-.08.06-.17.14-.34.21-.5.08.04.16.09.24.13Z"/>
    <path class="cls-1" d="M521.77,1689.7c-.05.12-.11.24-.16.36-.05-.03-.1-.05-.15-.08.06-.11.12-.23.18-.34.04.02.09.04.13.06Z"/>
    <path class="cls-1" d="M516.42,1695.34c.03.2.04.32.06.44-.07-.06-.16-.12-.21-.19-.01-.02.06-.1.15-.25Z"/>
    <path class="cls-1" d="M515.39,1684.26c-.09.07-.15.12-.21.18-.04-.06-.12-.13-.12-.19,0-.07.09-.13.14-.2.06.06.11.12.19.21Z"/>
    <path class="cls-1" d="M521.23,1683.52c.16-.17.18-.58.64-.32-.15.3-.39.33-.66.3,0,0,.02.02.02.02Z"/>
    <path class="cls-1" d="M515.91,1683.14c.16.05.31.09.47.14,0,.05-.01.1-.02.14l-.49-.05c.01-.08.03-.15.04-.23Z"/>
    <path class="cls-1" d="M532.6,1720.58c-.2,0-.4,0-.61,0-.03-.16-.06-.32-.1-.52.44-.05.49.36.71.52Z"/>
    <path class="cls-1" d="M577.37,1719.46c-.14-.12-.27-.24-.41-.35.02-.03.04-.06.06-.09.16.1.32.2.48.29-.04.05-.09.1-.13.15Z"/>
    <path class="cls-1" d="M544.84,1604.15c-.05.03-.11.08-.16.08-.4,0-.8,0-1.21-.11l1.36-.18c0,.07,0,.14.01.22Z"/>
    <path class="cls-1" d="M540.67,1605.44c.16-.08.32-.16.48-.24.02.04.05.08.07.13-.15.09-.3.17-.46.26-.03-.05-.06-.1-.09-.15Z"/>
    <path class="cls-1" d="M547.81,1604.48c.17.02.34.03.5.05,0,.01,0,.02,0,.03h-.51s0-.06,0-.08Z"/>
    <path class="cls-1" d="M515.06,1654.29c.04.61-.1.8-.8.98.15-.48.49-.71.82-.95,0,0-.02-.03-.02-.03Z"/>
    <path class="cls-1" d="M521.74,1698.36c-.04.16-.07.33-.11.49-.05,0-.09-.02-.14-.03.03-.16.05-.33.08-.49l.17.03Z"/>
  </g>
  <g>
    <path class="cls-1" d="M492.65,1788.16c-1.05,0-2.01-.16-2.86-.49-.85-.33-1.58-.79-2.18-1.37s-1.07-1.28-1.39-2.06c-.32-.79-.48-1.64-.48-2.55s.16-1.75.48-2.53c.32-.78.79-1.46,1.4-2.05s1.35-1.05,2.21-1.38c.86-.33,1.82-.5,2.88-.5,1.01,0,1.93.16,2.75.47.83.31,1.54.75,2.13,1.3.59.56,1.05,1.2,1.37,1.93.32.73.48,1.52.48,2.36,0,.89-.15,1.63-.45,2.24-.3.61-.7,1.06-1.2,1.37-.5.3-1.05.46-1.64.46-.77,0-1.37-.22-1.82-.66-.45-.44-.67-1.09-.67-1.95v-.95l-.13-2.51v-.77h2.69v4c0,.29.05.49.16.6.11.11.24.17.38.17.13,0,.25-.05.36-.16s.19-.3.26-.59c.06-.28.1-.69.1-1.21,0-.63-.11-1.22-.34-1.74-.22-.53-.55-.98-.97-1.37-.42-.39-.92-.69-1.51-.9s-1.24-.31-1.96-.31-1.37.12-1.96.35c-.59.23-1.09.56-1.52.99-.42.43-.75.92-.98,1.49s-.34,1.19-.34,1.85.11,1.31.34,1.88c.22.57.55,1.07.97,1.5.42.42.92.75,1.5.98.58.23,1.23.34,1.94.34.47,0,.94-.05,1.41-.15.47-.1.94-.25,1.42-.47l.59,1.72c-.42.21-.94.37-1.55.49-.62.12-1.24.18-1.86.18ZM491.81,1785.35c-.5,0-.98-.14-1.44-.42-.45-.28-.82-.68-1.11-1.21-.29-.52-.43-1.14-.43-1.86s.14-1.34.42-1.86c.28-.52.65-.92,1.1-1.2.45-.28.94-.42,1.45-.42.6,0,1.08.15,1.46.43.37.29.65.69.83,1.21.18.52.27,1.13.27,1.83s-.08,1.3-.25,1.83c-.16.53-.43.94-.8,1.23-.37.29-.87.43-1.5.43ZM492.58,1783.15c.2,0,.37-.05.52-.15.15-.1.27-.24.36-.43s.13-.43.13-.71-.04-.51-.13-.7-.21-.33-.36-.43c-.15-.1-.32-.15-.52-.15s-.36.05-.51.15-.27.24-.36.43-.13.42-.13.7.04.52.13.71.2.34.36.43.32.15.51.15Z"/>
    <path class="cls-1" d="M505.72,1785.45c-.79,0-1.52-.12-2.19-.37s-1.25-.6-1.74-1.06c-.49-.46-.87-1-1.14-1.62-.27-.62-.41-1.32-.41-2.07s.14-1.45.41-2.07c.27-.62.65-1.17,1.15-1.62.49-.46,1.08-.81,1.76-1.06.68-.25,1.42-.37,2.23-.37.97,0,1.84.16,2.6.49s1.39.79,1.88,1.4l-2.11,1.86c-.31-.35-.64-.62-1-.8s-.76-.27-1.2-.27c-.36,0-.69.06-.99.17-.29.11-.54.28-.75.49s-.36.47-.48.77c-.11.3-.17.64-.17,1.02s.06.7.17,1c.11.3.27.56.48.78s.45.38.74.5c.28.12.6.18.96.18.37,0,.74-.06,1.09-.19.35-.13.73-.34,1.13-.65l1.85,2.27c-.6.4-1.28.71-2.04.92-.76.21-1.51.32-2.23.32ZM507.12,1783.78v-3.72h2.87v4.14l-2.87-.42Z"/>
    <path class="cls-1" d="M510.34,1785.22l4.28-9.8h3.25l4.28,9.8h-3.42l-3.16-8.23h1.29l-3.16,8.23h-3.36ZM512.89,1783.52l.84-2.38h4.51l.84,2.38h-6.19Z"/>
    <path class="cls-1" d="M522.69,1785.22v-9.8h3.3v7.24h4.42v2.56h-7.73Z"/>
    <path class="cls-1" d="M530.26,1785.22l4.28-9.8h3.25l4.28,9.8h-3.42l-3.16-8.23h1.29l-3.16,8.23h-3.36ZM532.81,1783.52l.84-2.38h4.51l.84,2.38h-6.19Z"/>
    <path class="cls-1" d="M542.61,1785.22v-9.8h2.72l4.98,5.96h-1.26v-5.96h3.22v9.8h-2.72l-4.98-5.96h1.26v5.96h-3.22Z"/>
    <path class="cls-1" d="M552.8,1785.22l4.28-9.8h3.25l4.28,9.8h-3.42l-3.16-8.23h1.29l-3.16,8.23h-3.36ZM555.35,1783.52l.84-2.38h4.51l.84,2.38h-6.19Z"/>
    <path class="cls-1" d="M564.24,1785.22l4.37-6.1v2.31s-4.24-6.01-4.24-6.01h3.71l2.46,3.64h-1.58s2.41-3.64,2.41-3.64h3.56l-4.23,5.88v-2.29l4.44,6.21h-3.78l-2.46-3.81h1.53s-2.41,3.81-2.41,3.81h-3.77Z"/>
    <path class="cls-1" d="M574.91,1785.22l4.37-6.1v2.31s-4.24-6.01-4.24-6.01h3.71l2.46,3.64h-1.58s2.41-3.64,2.41-3.64h3.56l-4.23,5.88v-2.29l4.44,6.21h-3.78l-2.46-3.81h1.53s-2.41,3.81-2.41,3.81h-3.77Z"/>
    <path class="cls-1" d="M586.49,1785.22v-9.8h3.3v9.8h-3.3Z"/>
  </g>
</svg>